<svg id="圖層_1" data-name="圖層 1" xmlns="http://www.w3.org/2000/svg" xmlns:xlink="http://www.w3.org/1999/xlink" viewBox="0 0 1022 80"><defs><style>.cls-1{fill:#daf0f9;}.cls-2{fill:#6a7270;}.cls-3{fill:#231f20;}.cls-4{fill:#474747;}.cls-5{fill:#858e8c;}.cls-6{fill:#efb078;}.cls-7{fill:#e8a670;}.cls-8{fill:#b4c1bf;}.cls-9{fill:#c5d6d3;}.cls-10{fill:#5e5e5e;}.cls-11{fill:#070606;}.cls-12{opacity:0.15;}.cls-12,.cls-32,.cls-41,.cls-57{isolation:isolate;}.cls-13{fill:#666564;}.cls-14{fill:#9b5d1f;}.cls-15{fill:#dde8e6;}.cls-16{fill:#7a4826;}.cls-17{fill:#6b3d1e;}.cls-18{fill:#e2935d;}.cls-19{fill:#d68b54;}.cls-20{fill:#96562a;}.cls-21{fill:#c66e42;}.cls-22{fill:#ba6738;}.cls-23{fill:#a56032;}.cls-24{fill:#333232;}.cls-25{fill:#ad2d00;}.cls-26{fill:#ff3c00;}.cls-27{fill:#eb6b24;}.cls-28{fill:#ffdc13;}.cls-29{fill:#d74f00;}.cls-30{fill:#fff;}.cls-31,.cls-32{fill:#a1b3c4;}.cls-32{opacity:0.59;}.cls-33{fill:#f60;}.cls-34{fill:#eb3400;}.cls-35{fill:#72eef7;}.cls-36{fill:#d6d6d6;}.cls-37{fill:#a12300;}.cls-38{fill:#f9ad95;}.cls-39{fill:#ea8457;}.cls-40{fill:#ef916c;}.cls-41{opacity:0.19;}.cls-42{fill:#332e2f;}.cls-43{fill:#ffbca4;}.cls-44{fill:#ffd6ca;}.cls-45{fill:#aa3805;}.cls-46{fill:#ea552d;}.cls-47{fill:#ef6130;}.cls-48{fill:#d33b22;}.cls-49{fill:#19cc9d;}.cls-50{fill:#0fb787;}.cls-51{fill:#dd5b22;}.cls-52{fill:#ce5011;}.cls-53{fill:#4c4a4b;}.cls-54{fill:#e4efed;}.cls-55{fill:#949b99;}.cls-56{fill:#606060;}.cls-58{fill:#434c64;}.cls-59{fill:url(#未命名漸層);}.cls-60{fill:url(#未命名漸層_2);}.cls-61{fill:url(#未命名漸層_3);}.cls-62{fill:url(#未命名漸層_4);}.cls-63{opacity:0.8;}.cls-64{fill:none;}.cls-65{fill:#f599ab;}.cls-66{fill:#f6768f;}.cls-67{fill:#f34466;}.cls-68{fill:#55b2cb;}.cls-69{fill:#217dbb;}.cls-70{fill:#76d3ec;}.cls-71{fill:#57aa9a;}.cls-72{fill:#66bfae;}.cls-73{fill:#389481;}.cls-74{fill:#2fbbc5;}.cls-75{fill:#0e834c;}.cls-76{fill:#f9e25f;}.cls-77{fill:#e74c3c;}.cls-78{fill:#304e75;}.cls-79{fill:#16a085;}.cls-80{fill:#1abc9c;}.cls-81{fill:#128a72;}.cls-82{opacity:0.47;}.cls-83{fill:#a5f9ff;}.cls-84{fill:#8dafd2;}.cls-85{fill:#97bbda;}.cls-86{fill:#ffb17d;}.cls-87{fill:#cf8671;}</style><linearGradient id="未命名漸層" x1="385.95" y1="59.8" x2="385.95" y2="60.8" gradientTransform="matrix(9.11, 0, 0, -25.11, -3177.89, 1571.61)" gradientUnits="userSpaceOnUse"><stop offset="0" stop-color="#d50918"/><stop offset="1" stop-color="#ff4b2b"/></linearGradient><linearGradient id="未命名漸層_2" x1="385.95" y1="59.8" x2="385.95" y2="60.8" gradientTransform="matrix(9.11, 0, 0, -25.11, -3165.39, 1571.61)" xlink:href="#未命名漸層"/><linearGradient id="未命名漸層_3" x1="385.92" y1="59.82" x2="386.01" y2="60.82" gradientTransform="matrix(9.11, 0, 0, -25.11, -3152.99, 1571.61)" xlink:href="#未命名漸層"/><linearGradient id="未命名漸層_4" x1="386.01" y1="59.78" x2="385.95" y2="60.78" gradientTransform="matrix(9.11, 0, 0, -25.11, -3140.15, 1571.61)" xlink:href="#未命名漸層"/></defs><path class="cls-1" d="M4.67,0H1017.33c2.58,0,4.67,1.8,4.67,4V76c0,2.2-2.09,4-4.67,4H4.67C2.09,80,0,78.2,0,76V4C0,1.8,2.09,0,4.67,0Z"/><path class="cls-2" d="M103.62,18.07a4.39,4.39,0,0,0-2-3.42,1.34,1.34,0,0,0-1.46-.1l-1.4.81v2.92l1.49.88V17.74a4.13,4.13,0,0,0,1.26,1.4v1.07l1.46-.84A1.35,1.35,0,0,0,103.62,18.07Z"/><path class="cls-2" d="M101.65,14.65l-.07,0-2.5,1.45v2.39l1.2.71V17.73a4.06,4.06,0,0,0,1.27,1.4V20.2l1.46-.84a1.35,1.35,0,0,0,.62-1.3A4.38,4.38,0,0,0,101.65,14.65Z"/><path class="cls-2" d="M100.2,20a4.44,4.44,0,0,1-2-3.42c0-1.25.88-1.76,2-1.14a4.38,4.38,0,0,1,2,3.43C102.16,20.16,101.28,20.67,100.2,20Z"/><path class="cls-2" d="M100.19,15.48a4.38,4.38,0,0,1,2,3.43c0,1.25-.88,1.76-2,1.13"/><path class="cls-3" d="M101.14,20.26l0,11.46-3.37,1.94V22.18Z"/><path class="cls-4" d="M94.49,31.74l3.33,1.92V22.18l-3.37-1.94Z"/><path class="cls-5" d="M94.5,31.74v3.84l13.3,7.7V39.43Z"/><path class="cls-6" d="M111.08,37.5v3.84l-3.29,1.94V39.43Z"/><path class="cls-7" d="M107.8,43.28V39.43l3.28-1.93"/><path class="cls-8" d="M101.18,31.72l9.9,5.78-3.29,1.93-10-5.77Z"/><path class="cls-9" d="M97.83,33.66l3.35-1.94,9.9,5.78"/><path class="cls-10" d="M94.45,20.24l3.37-1.92,3.32,1.94-3.33,1.92Z"/><path class="cls-4" d="M101.3,54.83l0,7.67L98,64.44V56.75Z"/><path class="cls-11" d="M94.65,62.52,98,64.44V56.75l-3.36-1.94Z"/><path class="cls-4" d="M98,56.75l-3.36-1.94,0,7.7"/><path class="cls-12" d="M84.69,72.13,98,64.45l6.66,3.84L91.34,76Z"/><path class="cls-11" d="M94.65,62.52v3.84l6.69,3.86V66.37Z"/><path class="cls-4" d="M104.63,64.44v3.83l-3.3,1.94V66.36Z"/><path class="cls-13" d="M101.34,62.5l3.29,1.94-3.3,1.93L98,64.44Z"/><path class="cls-13" d="M88,54.85l13.31-7.68v7.68L88,62.53Z"/><path class="cls-4" d="M88,62.53V54.85l13.31-7.68"/><path class="cls-11" d="M81.36,51,88,54.85v7.69L81.36,58.7Z"/><path class="cls-14" d="M81.36,51l13.3-7.68,6.66,3.84L88,54.86Z"/><path class="cls-15" d="M88,31.8l13.31-7.67v23L88,54.85Z"/><path class="cls-8" d="M88,54.85v-23l13.31-7.68"/><path class="cls-4" d="M93.8,28.82l2.36-1.36V42.83L93.8,44.2Z"/><path class="cls-11" d="M93.8,44.2V28.81l2.36-1.36"/><path class="cls-5" d="M97.85,34l2.3-1.34v-.38l-2.3,1.33Z"/><path class="cls-5" d="M81.36,28,88,31.81v23L81.36,51Z"/><path class="cls-5" d="M81.36,28l13.3-7.69,6.66,3.84L88,31.81Z"/><path class="cls-4" d="M91.34,60.6l0,7.67L88,70.2V62.52Z"/><path class="cls-11" d="M84.69,68.3,88,70.22V62.53l-3.36-1.94Z"/><path class="cls-4" d="M88,62.53l-3.36-1.94,0,7.7"/><path class="cls-11" d="M84.69,68.3v3.84L91.38,76V72.15Z"/><path class="cls-4" d="M94.67,70.22v3.84L91.37,76V72.15Z"/><path class="cls-4" d="M94.65,66.36l6.69,3.86V68.9L94.65,65Z"/><path class="cls-11" d="M101.34,70.22l3.29-1.94V67l-3.3,1.94Z"/><path class="cls-4" d="M84.69,72.14,91.38,76V74.68l-6.7-3.86Z"/><path class="cls-11" d="M91.37,76l3.3-1.94V72.74l-3.3,1.94Z"/><path class="cls-13" d="M91.38,68.28l3.29,1.94-3.3,1.93L88,70.22Z"/><path class="cls-15" d="M84.69,29.9l0,11.47-3.36,1.94V31.83Z"/><path class="cls-5" d="M78,41.39l3.32,1.92V31.83L78,29.89Z"/><path class="cls-5" d="M78,41.39v3.84l13.3,7.7V49.08Z"/><path class="cls-6" d="M94.63,47.15V51l-3.29,1.94V49.09Z"/><path class="cls-7" d="M91.34,52.93V49.08l3.3-1.93"/><path class="cls-8" d="M84.72,41.37l9.91,5.78-3.29,1.93-10-5.77Z"/><path class="cls-9" d="M81.38,43.31l3.35-1.94,9.9,5.78"/><path class="cls-8" d="M78,29.89,81.36,28l3.33,1.94-3.33,1.92Z"/><path class="cls-6" d="M91.37,14.51l10-5.75V26l-10,5.76Z"/><path class="cls-7" d="M91.37,31.79V14.5l10-5.75"/><path class="cls-16" d="M91.37,14.51v3.86l10-5.76V8.76Z"/><path class="cls-17" d="M101.35,8.76l-10,5.75v3.86"/><path class="cls-18" d="M81.4,8.76l10,5.75V31.8L81.4,26Z"/><path class="cls-19" d="M81.4,8.76l10,5.75V31.8"/><path class="cls-20" d="M88,16.45l3.36,1.94V14.51l-10-5.75V26L88,29.85Z"/><path class="cls-16" d="M88,29.85V16.45l3.36,1.94V14.51l-10-5.75"/><path class="cls-21" d="M81.4,8.76,91.37,3l10,5.76-10,5.75Z"/><path class="cls-22" d="M101.35,8.76l-10,5.75-10-5.75"/><path class="cls-23" d="M91.42,14.51v3.86l-10-5.76V8.76Z"/><path class="cls-20" d="M81.45,8.76l10,5.75v3.86"/><path class="cls-3" d="M92.73,23.07v2.47l2.15-1.24,0-2.46Z"/><path class="cls-3" d="M97.85,20.1v2.47L100,21.33l0-2.46Z"/><path class="cls-24" d="M92.41,68.88v.54l-1.64,1v-.55Z"/><path class="cls-4" d="M91.93,68.61l.48.28-1.64.94-.48-.27Z"/><path class="cls-11" d="M90.3,69.56l.47.27v.54l-.48-.28"/><path class="cls-24" d="M93.7,69.62v.55l-1.63,1v-.55Z"/><path class="cls-4" d="M93.23,69.36l.48.27-1.64,1-.48-.28Z"/><path class="cls-11" d="M91.59,70.3l.48.28v.54l-.48-.28"/><path class="cls-24" d="M102.48,63.14v.54l-1.64.95v-.55Z"/><path class="cls-4" d="M102,62.87l.48.27-1.64,1-.48-.28Z"/><path class="cls-11" d="M100.36,63.81l.48.28v.54l-.48-.28"/><path class="cls-24" d="M103.78,63.88v.55l-1.65.94v-.54Z"/><path class="cls-4" d="M103.3,63.61l.48.28-1.64,1-.48-.28Z"/><path class="cls-11" d="M101.66,64.56l.47.28v.53l-.47-.27"/><path class="cls-25" d="M95.7,26.25v1.68l1.46-.85V25.41Z"/><path class="cls-26" d="M97.25,37.11l1-.6V35.15l1.32-.76v1.36l1-.56V37l-1,.56v1.36l-1.32.76V38.31l-1,.6Z"/><path class="cls-5" d="M102,50.82a.27.27,0,0,1-.32-.23.28.28,0,0,1,.18-.31l.63-.36V41.46l-5.62,3.31-.43-.24V33.13a.29.29,0,1,1,.57,0V44l5.61-3.31.43.24v9.13l-.14.25-.76.44A.28.28,0,0,1,102,50.82Z"/><path class="cls-2" d="M86.43,39.34,86,39.1V25.42a.29.29,0,0,1,.57,0V38.6l9.48-5.45,5.9-3.44V17.4a.28.28,0,0,1,.56,0h0V29.88l-.14.24L95,34.42Z"/><path class="cls-15" d="M88.7,25.8a4.39,4.39,0,0,0-2-3.42,1.34,1.34,0,0,0-1.46-.09l-1.4.8V26l1.48.88V25.47a4.06,4.06,0,0,0,1.27,1.4v1.07l1.45-.84A1.36,1.36,0,0,0,88.7,25.8Z"/><path class="cls-8" d="M86.73,22.38l-.07,0-2.5,1.44v2.4l1.2.7V25.47a4.06,4.06,0,0,0,1.27,1.4v1.07l1.45-.83a1.35,1.35,0,0,0,.62-1.3A4.38,4.38,0,0,0,86.73,22.38Z"/><path class="cls-5" d="M85.27,27.78a4.4,4.4,0,0,1-2-3.42c0-1.26.88-1.77,2-1.14a4.39,4.39,0,0,1,2,3.42C87.23,27.9,86.35,28.41,85.27,27.78Z"/><path class="cls-2" d="M85.26,23.22a4.39,4.39,0,0,1,2,3.42c0,1.26-.88,1.77-2,1.14"/><path class="cls-27" d="M108.23,40a2.18,2.18,0,0,1,.77-.85.71.71,0,0,1,.83,0l10.51,6.1,0,.08a.67.67,0,0,1,.28.06l0,0a.87.87,0,0,1,.3.72,2.51,2.51,0,0,1-1.07,2,.71.71,0,0,1-.8,0l-10.8-6.27a.79.79,0,0,1-.33-.75,2.28,2.28,0,0,1,.3-1.08Z"/><path class="cls-28" d="M119.84,45.44a2.22,2.22,0,0,0-.74.81L108.23,40a2.23,2.23,0,0,1,.78-.86.69.69,0,0,1,.82,0l10.51,6.1,0,.08A1.07,1.07,0,0,0,119.84,45.44Z"/><path class="cls-29" d="M118.76,47.4a2.33,2.33,0,0,1,.34-1.15,2.22,2.22,0,0,1,.75-.8,1,1,0,0,1,.46-.15.63.63,0,0,1,.27.06l0,0a.82.82,0,0,1,.3.73,2.51,2.51,0,0,1-1.08,1.94.71.71,0,0,1-.79.06.87.87,0,0,1-.3-.72Z"/><path class="cls-30" d="M104,57.88l18.48-10.67a3.79,3.79,0,0,1,3.77,0L152,62.09a1.93,1.93,0,0,1,.7,2.64,2,2,0,0,1-.7.7,1.92,1.92,0,0,0,1-1.67v.89a1.92,1.92,0,0,1-1,1.67L134.26,76.58a4.52,4.52,0,0,1-4.5,0L104,61.7a1.68,1.68,0,0,1-.85-1.47v-.88a1.71,1.71,0,0,1,.85-1.48Z"/><path class="cls-31" d="M146.2,61.77l-17,9.77-1-.57,17.1-9.78Z"/><path class="cls-31" d="M138.78,68.94l-7,4-1-.57,7.05-4Z"/><path class="cls-31" d="M143.67,60.38l-17,9.78-1-.58,17.09-9.78Z"/><path class="cls-31" d="M141.14,59l-17,9.78-1-.58,17.09-9.78Z"/><path class="cls-31" d="M138.61,57.6l-17,9.78-1-.58L137.67,57Z"/><path class="cls-31" d="M136.08,56.22l-17,9.77-1-.57,17.09-9.79Z"/><path class="cls-31" d="M133.55,54.83l-17,9.78-1-.58,17.1-9.78Z"/><path class="cls-31" d="M131,53.44l-17,9.78-1-.58,17.1-9.78Z"/><path class="cls-31" d="M128.5,52.06l-17,9.77-1-.57,17.1-9.78Z"/><path class="cls-31" d="M126,50.67l-17,9.78-1-.58L125,50.09Z"/><path class="cls-32" d="M119.32,58.34c0,2.7,4.6,4.88,10.26,4.88s10.26-2.18,10.26-4.88-4.6-4.88-10.26-4.88S119.32,55.65,119.32,58.34Z"/><path class="cls-33" d="M129.27,42.66c6.35,0,11.5,3,11.5,6.64v2.56c0,3.67-5.15,6.64-11.5,6.64s-11.5-3-11.5-6.64V49.3C117.77,45.63,122.92,42.66,129.27,42.66Z"/><ellipse class="cls-33" cx="129.27" cy="49.3" rx="11.5" ry="6.64"/><path class="cls-34" d="M139.13,48.78a3.41,3.41,0,0,1-.68,2,2.72,2.72,0,0,0,.08-.63,3.21,3.21,0,0,0-.68-1.93c-1.39-1.91-4.77-3.26-8.72-3.26s-7.34,1.35-8.72,3.26a3.21,3.21,0,0,0-.68,1.93v0a3.24,3.24,0,0,1-.33-1.4c0-3,4.42-5.45,9.87-5.45s9.86,2.45,9.86,5.45Z"/><path class="cls-35" d="M120.4,48.2c1.4-1.9,4.77-3.25,8.73-3.25s7.33,1.35,8.72,3.26a3.21,3.21,0,0,1,.68,1.93,2.72,2.72,0,0,1-.08.63,5.28,5.28,0,0,1-.88.95c-1.75,1.51-4.81,2.5-8.3,2.5s-6.55-1-8.3-2.5a4.84,4.84,0,0,1-1.23-1.54v0a3.29,3.29,0,0,1,.67-1.93Z"/><path class="cls-36" d="M132,76.3a4.5,4.5,0,0,0,2.26-.6L152,65.43a1.92,1.92,0,0,0,1-1.67v.89a1.92,1.92,0,0,1-1,1.67L134.26,76.58a4.54,4.54,0,0,1-2.25.6v-.89Z"/><path class="cls-31" d="M104,60.83l25.74,14.86a4.54,4.54,0,0,0,2.25.6v.89a4.54,4.54,0,0,1-2.25-.6L104,61.7a1.68,1.68,0,0,1-.85-1.47v-.88a1.69,1.69,0,0,0,.86,1.47Z"/><path class="cls-30" d="M120.4,48.2h17.45a3.27,3.27,0,0,1,.68,1.94,2.72,2.72,0,0,1-.08.63,5.28,5.28,0,0,1-.88.95H121a4.74,4.74,0,0,1-1.24-1.54v0a3.21,3.21,0,0,1,.68-1.93Z"/><path class="cls-37" d="M129.27,55.94c6.35,0,11.5-3,11.5-6.64v2.55c0,3.67-5.15,6.64-11.5,6.64s-11.5-3-11.5-6.64V49.3C117.77,53,122.92,55.94,129.27,55.94Z"/><path class="cls-27" d="M889.35,38.18a2.2,2.2,0,0,0-.78-.85.71.71,0,0,0-.81,0l-10.42,6,0,.07a.55.55,0,0,0-.28.07l0,0h0a.84.84,0,0,0-.3.72,2.49,2.49,0,0,0,1.08,1.93.71.71,0,0,0,.78.05L889.32,40a.8.8,0,0,0,.33-.74,2.36,2.36,0,0,0-.3-1.07Z"/><path class="cls-28" d="M877.84,43.56a2.27,2.27,0,0,1,.74.8l10.76-6.18a2.18,2.18,0,0,0-.77-.85.71.71,0,0,0-.81,0l-10.42,6,0,.07A1,1,0,0,1,877.84,43.56Z"/><path class="cls-29" d="M878.91,45.5a2.32,2.32,0,0,0-.33-1.14,2.27,2.27,0,0,0-.74-.8,1,1,0,0,0-.45-.14.55.55,0,0,0-.28.06l0,0h0a.84.84,0,0,0-.3.72,2.49,2.49,0,0,0,1.08,1.93.71.71,0,0,0,.78.05.82.82,0,0,0,.3-.7Z"/><path class="cls-30" d="M893.52,55.88l-18.3-10.56a3.73,3.73,0,0,0-3.74,0L846,60.05a1.91,1.91,0,0,0-.7,2.61,2,2,0,0,0,.7.7,1.91,1.91,0,0,1-1-1.65v.88a1.91,1.91,0,0,0,1,1.65l17.6,10.16a4.47,4.47,0,0,0,4.45,0l25.5-14.72a1.7,1.7,0,0,0,.85-1.46v-.88a1.69,1.69,0,0,0-.84-1.46Z"/><path class="cls-31" d="M851.73,59.73l16.87,9.68,1-.57-16.93-9.68Z"/><path class="cls-31" d="M859.08,66.84l6.93,4,1-.57-7-4Z"/><path class="cls-31" d="M854.24,58.36,871.1,68l1-.57-16.93-9.69Z"/><path class="cls-31" d="M856.74,57l16.87,9.69,1-.58-16.93-9.68Z"/><path class="cls-31" d="M859.25,55.6l16.87,9.7,1-.58L860.18,55Z"/><path class="cls-31" d="M861.75,54.23l16.87,9.69,1-.57-16.93-9.69Z"/><path class="cls-31" d="M864.26,52.86l16.86,9.68,1-.57-16.93-9.68Z"/><path class="cls-31" d="M866.77,51.49l16.87,9.68,1-.57-16.93-9.69Z"/><path class="cls-31" d="M869.27,50.11l16.87,9.69,1-.57-16.93-9.7Z"/><path class="cls-31" d="M871.78,48.74l16.87,9.68,1-.57-16.93-9.69Z"/><path class="cls-32" d="M878.37,56.34c0,2.67-4.56,4.83-10.17,4.83S858,59,858,56.34s4.55-4.83,10.17-4.83,10.16,2.16,10.16,4.83Z"/><path class="cls-33" d="M868.51,40.8c-6.3,0-11.4,2.94-11.4,6.58V49.9c0,3.64,5.1,6.58,11.4,6.58s11.38-2.94,11.38-6.58V47.38C879.89,43.75,874.79,40.8,868.51,40.8Z"/><ellipse class="cls-33" cx="868.5" cy="47.38" rx="11.39" ry="6.58"/><path class="cls-34" d="M858.73,46.87a3.35,3.35,0,0,0,.68,2,2.72,2.72,0,0,1-.08-.63,3.27,3.27,0,0,1,.67-1.9c1.38-1.9,4.73-3.24,8.64-3.24s7.27,1.34,8.64,3.23a3.23,3.23,0,0,1,.67,1.91v0a3.15,3.15,0,0,0,.33-1.38c0-3-4.38-5.4-9.77-5.4s-9.78,2.42-9.78,5.4Z"/><path class="cls-35" d="M877.28,46.3c-1.37-1.89-4.72-3.22-8.64-3.22s-7.26,1.33-8.64,3.22a3.23,3.23,0,0,0-.67,1.91,2.72,2.72,0,0,0,.08.63,5.17,5.17,0,0,0,.87.94c1.74,1.5,4.77,2.49,8.22,2.49s6.49-1,8.23-2.49A4.74,4.74,0,0,0,878,48.26v0a3.27,3.27,0,0,0-.67-1.9Z"/><path class="cls-36" d="M865.78,74.12a4.43,4.43,0,0,1-2.22-.6L846,63.36a1.91,1.91,0,0,1-1-1.65v.88a1.9,1.9,0,0,0,1,1.65l17.6,10.16a4.49,4.49,0,0,0,2.23.6Z"/><path class="cls-31" d="M893.52,58.8,868,73.53a4.49,4.49,0,0,1-2.23.6V75a4.49,4.49,0,0,0,2.23-.6l25.5-14.72a1.69,1.69,0,0,0,.84-1.46v-.88A1.69,1.69,0,0,1,893.52,58.8Z"/><path class="cls-30" d="M877.28,46.3H860a3.22,3.22,0,0,0-.66,1.91,2.7,2.7,0,0,0,.07.63,5.17,5.17,0,0,0,.87.94h16.45A4.78,4.78,0,0,0,878,48.25v0a3.27,3.27,0,0,0-.67-1.9Z"/><path class="cls-37" d="M868.5,54c-6.29,0-11.39-3-11.39-6.58v2.53c0,3.63,5.1,6.57,11.4,6.57s11.39-2.94,11.39-6.57V47.38C879.9,51,874.8,54,868.5,54Z"/><path class="cls-38" d="M894.44,53.17l0,7.52,3.3,1.9V55.05Z"/><path class="cls-39" d="M901,60.71l-3.26,1.88V55.06l3.3-1.9Z"/><path class="cls-40" d="M897.7,55.06l3.3-1.9,0,7.56"/><path class="cls-41" d="M910.74,70.14l-13-7.54-6.53,3.77,13.06,7.54Z"/><path class="cls-11" d="M901,60.71v3.77l-6.56,3.79V64.49Z"/><path class="cls-4" d="M891.18,62.6v3.76l3.23,1.9V64.5Z"/><path class="cls-42" d="M894.41,60.69l-3.23,1.9,3.23,1.9,3.28-1.9Z"/><path class="cls-38" d="M904.22,58.83l0,7.52,3.3,1.9V60.71Z"/><path class="cls-39" d="M910.74,66.38l-3.26,1.89V60.73l3.3-1.9Z"/><path class="cls-40" d="M907.48,60.73l3.3-1.9,0,7.56"/><path class="cls-11" d="M910.74,66.38v3.77l-6.56,3.79V70.16Z"/><path class="cls-4" d="M901,68.27V72l3.23,1.9V70.16Z"/><path class="cls-4" d="M901,64.48l-6.56,3.79V67L901,63.18Z"/><path class="cls-11" d="M894.4,68.27l-3.22-1.9v-1.3l3.23,1.9Z"/><path class="cls-4" d="M910.74,70.15,904.18,74v-1.3l6.56-3.8Z"/><path class="cls-11" d="M904.18,73.94,901,72v-1.3l3.23,1.9Z"/><path class="cls-42" d="M904.18,66.36,901,68.26l3.23,1.9,3.28-1.9Z"/><path class="cls-3" d="M894.6,19.25l0,11.24,3.3,1.9V21.13Z"/><path class="cls-4" d="M901.13,30.51l-3.27,1.89V21.13l3.3-1.9Z"/><path class="cls-39" d="M901.13,30.51v3.77l-13.06,7.56V38.06Z"/><path class="cls-43" d="M884.84,36.17v3.77l3.23,1.9V38.06Z"/><path class="cls-38" d="M888.07,41.84V38.06l-3.23-1.9"/><path class="cls-43" d="M894.56,30.5l-9.72,5.67,3.23,1.9,9.78-5.67Z"/><path class="cls-44" d="M897.85,32.4l-3.29-1.9-9.71,5.67"/><path class="cls-10" d="M901.16,19.23l-3.3-1.89-3.26,1.9,3.26,1.89Z"/><path class="cls-15" d="M907.48,30.58,894.43,23V45.65l13.05,7.54Z"/><path class="cls-8" d="M907.48,53.2V30.57L894.43,23"/><path class="cls-5" d="M914,26.81l-6.52,3.77V53.19L914,49.42Z"/><path class="cls-5" d="M914,26.81l-13-7.54L894.43,23l13.05,7.54Z"/><path class="cls-45" d="M916.27,7.86,909.51,4V15.67l6.76,3.9Z"/><path class="cls-45" d="M916.27,19.58V7.86L909.51,4"/><path class="cls-46" d="M919.66,5.9l-3.39,2V19.58l3.39-2Z"/><path class="cls-47" d="M919.66,5.9,912.89,2l-3.38,2,6.76,3.9Z"/><path class="cls-15" d="M907.48,49.26l-13.05-7.54V53.35l13.05,7.54Z"/><path class="cls-8" d="M907.48,60.9V49.25l-13.05-7.54"/><path class="cls-5" d="M914,45.49l-6.52,3.77V60.89L914,57.12Z"/><path class="cls-5" d="M914,45.49l-6.52,3.77V60.89"/><path class="cls-15" d="M910.74,28.72l0,11.24,3.3,1.9V30.6Z"/><path class="cls-5" d="M917.27,40,914,41.87V30.6l3.3-1.9Z"/><path class="cls-39" d="M917.27,40v3.77l-13,7.56V47.53Z"/><path class="cls-43" d="M901,45.63V49.4l3.23,1.9V47.52Z"/><path class="cls-38" d="M904.22,51.3V47.53L901,45.63"/><path class="cls-43" d="M910.7,40,901,45.63l3.23,1.9L914,41.87Z"/><path class="cls-44" d="M914,41.87,910.71,40,901,45.64"/><path class="cls-15" d="M917.3,28.7,914,26.8l-3.26,1.9L914,30.59Z"/><path class="cls-43" d="M904.18,13.61,894.4,8v17l9.78,5.65Z"/><path class="cls-48" d="M901,26.47l-3.5-2V24l3.5,2Z"/><path class="cls-38" d="M904.18,30.56v-17L894.4,8"/><path class="cls-49" d="M904.18,13.61v3.78l-9.78-5.65V8Z"/><path class="cls-50" d="M894.4,8l9.78,5.65v3.78"/><path class="cls-40" d="M914,8l-9.79,5.65v17L914,24.91Z"/><path class="cls-39" d="M914,8l-9.79,5.65v17"/><path class="cls-51" d="M907.48,15.51l-3.3,1.9v-3.8L914,8v17l-6.48,3.74Z"/><path class="cls-52" d="M907.48,28.66V15.5l-3.3,1.9V13.6L914,8"/><path class="cls-10" d="M914,8l-9.79-5.65L894.4,8l9.78,5.65Z"/><path class="cls-53" d="M894.4,8l9.78,5.65L914,8"/><path class="cls-15" d="M904.18,13.61v3.78l-9.78-5.65V8Z"/><path class="cls-8" d="M894.4,8l9.78,5.65v3.78"/><path class="cls-54" d="M914,8l-9.79-5.65L894.4,8l9.78,5.65Z"/><path class="cls-15" d="M894.4,8l9.78,5.65L914,8"/><path class="cls-55" d="M904.14,13.61v3.78l9.78-5.65V8Z"/><path class="cls-5" d="M913.93,8l-9.79,5.65v3.78"/><path class="cls-3" d="M902.86,22v2.42l-2.11-1.21V20.8Z"/><path class="cls-3" d="M897.83,19.1v2.42l-2.1-1.22V17.88Z"/><path class="cls-4" d="M903.17,67v.54l1.6.93v-.53Z"/><path class="cls-56" d="M903.64,66.69l-.47.27,1.6.93.47-.27Z"/><path class="cls-3" d="M905.25,67.62l-.47.27v.53l.47-.27"/><path class="cls-4" d="M901.9,67.69v.53l1.6.93v-.53Z"/><path class="cls-56" d="M902.36,67.42l-.46.27,1.6.93.47-.27Z"/><path class="cls-3" d="M904,68.35l-.47.27v.53l.47-.27"/><path class="cls-4" d="M893.29,61.32v.53l1.6.93v-.53Z"/><path class="cls-56" d="M893.76,61.06l-.47.27,1.6.92.48-.27Z"/><path class="cls-3" d="M895.37,62l-.47.27v.53l.47-.27"/><path class="cls-4" d="M892,62.05v.54l1.6.93V63Z"/><path class="cls-56" d="M892.49,61.79l-.47.27,1.6.93.47-.27Z"/><path class="cls-3" d="M894.1,62.72l-.47.27v.53l.47-.27"/><path class="cls-5" d="M899.4,34.72l-3.72-2.15V32l3.72,2.14Z"/><path class="cls-26" d="M899.18,37l-1-.59V35l-1.3-.75v1.33l-1-.55v1.77l1,.55v1.33l1.3.75V38.13l1,.59Z"/><g class="cls-57"><g class="cls-57"><path class="cls-58" d="M283.58,14.44c0,.64,0,1.6-.12,2.74.28,2,1.46,11.14,8.66,14.34a3.22,3.22,0,0,0-.7.78c-5.5-2.52-7.52-8.4-8.36-12.14-.78,4.26-2.84,9.46-8.26,12.2a4.09,4.09,0,0,0-.74-.7c8.42-4.12,8.46-14.36,8.5-17.22Z"/><path class="cls-58" d="M299.66,19.62h-5.58V18.8h5.58ZM301,30.08A31.54,31.54,0,0,1,295,32.42a5.1,5.1,0,0,0-.72-.76,27.21,27.21,0,0,0,5.9-2Zm-1.88-13.6h-4.62v-.82h4.62Zm-2.4,4.86H309.5v8H296.74Zm.94,2.42h10.86V22.1H297.68Zm0,2.4h10.86V24.5H297.68Zm0,2.46h10.86V26.9H297.68Zm5.16-12a10.48,10.48,0,0,1-1.56,2.2,5.61,5.61,0,0,0-.76-.52,9.9,9.9,0,0,0,2.32-4l.9.2a9.71,9.71,0,0,1-.5,1.26h7.38l.16,0,.64.24a19.84,19.84,0,0,1-1.62,2.74l-.78-.26a19.08,19.08,0,0,0,1.1-1.86h-3.8v.16a4,4,0,0,1-.1.94c1.06,1.28,3.3,2.22,5.9,2.5a5.1,5.1,0,0,0-.56.78,9.66,9.66,0,0,1-5.62-2.58c-.6,1.06-2.1,2.08-5.78,2.74a3.29,3.29,0,0,0-.54-.76c5.36-.84,5.8-2.46,5.8-3.64V16.6Zm2.92,13.1a45.94,45.94,0,0,1,6,2.08l-.86.6a49.44,49.44,0,0,0-5.84-2.12Z"/><path class="cls-58" d="M318.08,25.82V19.68a15,15,0,0,1-3.64,4.86,3.56,3.56,0,0,0-.66-.68,13.75,13.75,0,0,0,4.08-5.58h-3.64V17.4h3.86v-3H319v3h3.38v.88H319v1.36c.76.5,2.88,2.12,3.42,2.54l-.56.8c-.52-.52-1.92-1.7-2.86-2.44v5.28ZM314.14,31a13.79,13.79,0,0,0,2-4.08l.8.34a14.59,14.59,0,0,1-2,4.18Zm11.56.1c1,0,1.14-.28,1.24-2.34a2,2,0,0,0,.9.38c-.16,2.34-.48,2.86-2.08,2.86h-4.48c-1.88,0-2.36-.26-2.36-1.48V27.08h.94v3.46c0,.48.22.58,1.42.58Zm-3.62-5.42a36.6,36.6,0,0,1,2.8,2.94l-.7.54c-.62-.76-1.82-2.08-2.78-3Zm8.8-.06H323.3V15.42h7.58ZM330,16.28H324.2v2.26H330Zm0,3.08H324.2v2.3H330Zm0,3.12H324.2V24.8H330Zm-.54,4a44.68,44.68,0,0,1,2.36,4l-.9.4c-.48-1-1.48-2.78-2.3-4.1Z"/><path class="cls-58" d="M340.38,21.52a19.09,19.09,0,0,1-1.08,1.72h10.42V32.5h-.94v-.86h-9.56v.86h-.94V24.56a15.52,15.52,0,0,1-3.84,3.26,6.35,6.35,0,0,0-.6-.72,15.62,15.62,0,0,0,5.44-5.58h-5v-.84h5.48c.32-.6.62-1.24.88-1.86h-4.86V18h5.16a17.62,17.62,0,0,0,.56-1.74c-2,.1-4,.16-5.82.18a3.63,3.63,0,0,0-.22-.76c4.84-.08,11.08-.4,14.16-1.1l.66.7a52.77,52.77,0,0,1-7.72.92c-.18.62-.36,1.2-.58,1.8h8.6v.84h-8.92c-.24.62-.52,1.26-.82,1.86h10.92v.84Zm8.4,2.56h-9.56v1.68h9.56Zm-9.56,4.16h9.56V26.52h-9.56Zm9.56,2.58V29h-9.56v1.8Z"/><path class="cls-58" d="M359.12,14.52c-.34,1-.74,2.16-1.08,3h3.48v12.8h-5.7V32h-.9V17.54h2.22a28.69,28.69,0,0,0,1-3.26Zm1.48,3.9h-4.78V23.2h4.78Zm0,11V24.08h-4.78v5.36ZM371.34,18.1c-.34,9.28-.62,12.32-1.42,13.26a1.77,1.77,0,0,1-1.4.62,24.78,24.78,0,0,1-2.88-.06,2.29,2.29,0,0,0-.32-.94c1.32.1,2.5.12,2.94.12s.64,0,.84-.3c.66-.72,1-3.82,1.3-12.36h-5.6a19,19,0,0,1-2,3.72,7.32,7.32,0,0,0-.82-.52,19.58,19.58,0,0,0,3.06-7.44l.94.22a26.67,26.67,0,0,1-.9,3.12h6.22ZM367.44,27a32.05,32.05,0,0,0-3.24-4.66l.78-.44a34.92,34.92,0,0,1,3.26,4.58Z"/><path class="cls-58" d="M379.56,14.68a33.85,33.85,0,0,1-2.18,4.44V32.44h-.92V20.54a19.36,19.36,0,0,1-2.42,3,4.33,4.33,0,0,0-.58-.86,23.91,23.91,0,0,0,5.2-8.24Zm10,16.72c1.28,0,1.48-.6,1.64-3a2.69,2.69,0,0,0,.92.4c-.22,2.64-.54,3.48-2.58,3.48h-5.72c-2.12,0-2.76-.44-2.76-2.34V22.78l-2.26.88-.36-.86,2.62-1V16.22H382v5.2l3.52-1.34V14.36h.9v5.36l3.78-1.46.28-.24.72.22-.06.2c0,2.92-.18,6.78-.46,9.1l-.82-.24c.2-2,.32-5.36.34-8.06l-3.78,1.46v7.48h-.9V21.06L382,22.42V30c0,1.12.32,1.44,1.78,1.44Z"/><path class="cls-58" d="M398.84,14.7a34.43,34.43,0,0,1-1.6,4V32.46h-.92v-12a22.75,22.75,0,0,1-2.3,3.34,5.52,5.52,0,0,0-.56-.9,24.68,24.68,0,0,0,4.48-8.4Zm5.76,7.88h-4.28v9.84h-.92V15.56h5.2Zm-4.28-6.2V18.6h3.46V16.38Zm3.46,5.38V19.4h-3.46v2.36Zm7.6,9.22c0,.78-.22,1.14-.8,1.32a20.23,20.23,0,0,1-3.6.16,5.31,5.31,0,0,0-.38-1c1.58,0,2.94,0,3.34,0s.52-.14.52-.52v-8.4H406v-7h5.4Zm-4.56-14.6V18.6h3.64V16.38Zm3.64,5.38V19.4h-3.64v2.36Z"/><path class="cls-58" d="M422.14,23v9.48h-.92V30.32l-7,.94-.14-.9,2-.22V23h-1.82v-.84h17.42V23Zm-4.56-2h-.92V15h12.8v5.94h-.94V15.78H417.58Zm3.64,2H417v1.72h4.24Zm0,2.52H417V27.2h4.24ZM417,30c1.32-.18,2.78-.36,4.24-.54V28H417ZM427.28,18h-8.66v-.74h8.66Zm0,2.12h-8.66v-.74h8.66ZM431,24.76a11,11,0,0,1-3.14,4.66,11.08,11.08,0,0,0,4.2,2.1,4.48,4.48,0,0,0-.58.76,12.37,12.37,0,0,1-4.3-2.3,14.82,14.82,0,0,1-4.42,2.3,2.87,2.87,0,0,0-.56-.76,13,13,0,0,0,4.32-2.14,11.39,11.39,0,0,1-2.58-4l.06,0h-1v-.82h7.3l.18-.06Zm-6.16.6a9.56,9.56,0,0,0,2.34,3.46,9.57,9.57,0,0,0,2.64-3.46Z"/><path class="cls-58" d="M439.36,21.68c0,.26,0,.54,0,.82h4v.92H439.3c-.06.54-.12,1.12-.24,1.68.9.9,3.48,3.74,4.1,4.46l-.66.82c-.68-.9-2.56-3.1-3.66-4.3a10.88,10.88,0,0,1-4.34,6.34,3.67,3.67,0,0,0-.64-.72,10.58,10.58,0,0,0,4.48-8.28H434V22.5h4.38c0-.3,0-.56,0-.84V18h-2a14.38,14.38,0,0,1-1.74,3.42c-.18-.16-.6-.42-.8-.56a16.9,16.9,0,0,0,2.62-6.56l.94.18c-.2.9-.44,1.76-.7,2.6h6V18h-3.38ZM451,16.08V31.7h-1V30.22h-5v1.66h-.94V16.08ZM450,29.3V17h-5V29.3Z"/><path class="cls-58" d="M458.46,24.06a25.42,25.42,0,0,1-1.74,5.18c.46.2.92.66,1.84,1.2,1.44.86,3.22,1,5.62,1,2.74,0,5.82-.18,8-.36a3.5,3.5,0,0,0-.28,1c-1.42.08-5.38.2-7.78.2-2.64,0-4.42-.22-5.9-1.12-.8-.48-1.58-1.18-2-1.18s-1.1,1.18-1.72,2.52l-.72-.78a7.89,7.89,0,0,1,2-2.48,20.22,20.22,0,0,0,1.58-4.54h-2.7a44.52,44.52,0,0,0,1.88-4.56h-2.48v-.9h3.76c-.54,1.46-1.26,3.24-1.84,4.6h1.76l.18,0Zm-2.38-6.12c-.22-.84-.64-2.2-1-3.2l.84-.22c.34,1,.78,2.3,1,3.14Zm8.14,2c.22-.6.42-1.32.58-1.94h-5.58v-.84h7.56a17.73,17.73,0,0,0,1.68-2.78l1,.3c-.52.84-1.1,1.76-1.64,2.48h4.06V18h-6c-.24.66-.48,1.36-.72,1.94h4.92v9.22h-9.12V19.92Zm-1.28-2.8a8.24,8.24,0,0,0-1.48-2.38l.76-.34a7.64,7.64,0,0,1,1.5,2.3Zm6.18,3.6h-7.26v2h7.26Zm0,2.78h-7.26v2h7.26Zm0,2.8h-7.26v2h7.26Z"/><path class="cls-58" d="M476.68,29.72a1.32,1.32,0,1,1,2.64,0,1.32,1.32,0,1,1-2.64,0ZM477.2,18l0-2h1.64l0,2-.36,8.32h-.88Z"/></g></g><g class="cls-57"><g class="cls-57"><path class="cls-58" d="M407.06,62.82a7.32,7.32,0,0,1-2.58,2.72,21.85,21.85,0,0,0,3.48.7,5,5,0,0,0-.9,1.32,19,19,0,0,1-4.26-1.14,19.36,19.36,0,0,1-4.48,1.18,4.78,4.78,0,0,0-.72-1.28,18.9,18.9,0,0,0,3.52-.72,12,12,0,0,1-1.56-1.08,13.69,13.69,0,0,1-1.42.88,11.43,11.43,0,0,0-1.16-1,12.08,12.08,0,0,0,1.58-.86,10.5,10.5,0,0,1-.8-1.06l1.3-.38a4.52,4.52,0,0,0,.56.7,9.29,9.29,0,0,0,1.1-1.06h-1.8V58.34c-.24.26-.48.5-.7.7-.08-.16-.24-.46-.42-.76a14,14,0,0,1-1.34,1.8v7.5h-1.64V61.7a11.34,11.34,0,0,1-1,.78,8.25,8.25,0,0,0-.74-1.44,18.27,18.27,0,0,1-1.8,6.52,6.81,6.81,0,0,0-1.68-.92c1.74-3.12,1.9-7.62,1.9-10.82V49.9h15.34v4.34H393.36v1.58a46.75,46.75,0,0,1-.26,5,11.2,11.2,0,0,0,3.46-3.46l.9.32-.12-.14a9.2,9.2,0,0,0,2.56-3.32l1.44.5c-.1.2-.22.44-.34.66h6.4v1.22h-7.12c-.18.28-.38.52-.56.78h7v4.3h-4.52l.26.08c-.16.22-.34.42-.52.64h3.86l.3,0Zm-13.7-11.46v1.42H405V51.36Zm4.38,3.56a12.56,12.56,0,0,1-3.18,3.16,9.57,9.57,0,0,0-1.06-1.18,9.61,9.61,0,0,0,2.76-2.44Zm2.7,4.18h4.68v-.8h-4.68Zm0,1.72h4.68V60h-4.68Zm.2,2.88a11.3,11.3,0,0,0,2.18,1.24,7,7,0,0,0,2-1.4h-4Z"/><path class="cls-58" d="M416,57.66a9.89,9.89,0,0,1-2.18,2.48,6.78,6.78,0,0,0-.8-1,22.61,22.61,0,0,1-1.8,8.36,6.22,6.22,0,0,0-1.56-.86c1.56-3.1,1.7-7.52,1.7-10.66V50.08h16.5v1.68H413.1V56c0,.86,0,1.8-.06,2.8a9.75,9.75,0,0,0,2.34-2.44h-1.76V55.06H416V53.88c-.68.1-1.36.18-2,.22a6.84,6.84,0,0,0-.42-1.1,20.78,20.78,0,0,0,4.78-.9l1.2.94a9.93,9.93,0,0,1-2,.56v1.46h2.2V56.4h-2.2v0c.52.32,1.82,1.22,2.16,1.5l-.9,1.16a10.8,10.8,0,0,0-1.26-1.18v2.28H416Zm5.36,7.84h6.52v1.56h-15.1V65.5h2.36v-4h1.78v4h2.64V60.1h.74a6.13,6.13,0,0,0-1-1.12A8.68,8.68,0,0,0,422,56.4h-1.66V55.06h2.54V53.84c-.74.1-1.52.18-2.22.22a3.9,3.9,0,0,0-.42-1.1A23.51,23.51,0,0,0,425.5,52l1.2,1a11.45,11.45,0,0,1-2.28.6v1.48h3.08V56.4h-3.08v.06l0,0c.68.4,2.94,2,3.5,2.4l-.86,1.24a32.72,32.72,0,0,0-2.66-2.24v2.34h-1.56V57.24a10,10,0,0,1-2.48,2.86h1v1.82h4.7v1.46h-4.7Z"/><path class="cls-58" d="M434.84,49.74a38.13,38.13,0,0,1-1.42,3.92v13.9h-1.64V56.9a18,18,0,0,1-1.2,1.76,12.7,12.7,0,0,0-.88-1.94,21.3,21.3,0,0,0,3.46-7.46Zm4.34,6.82a24.64,24.64,0,0,1-1.44,7c1.76,1.76,4.18,2.18,6.76,2.18.62,0,2.9,0,3.72,0a5.42,5.42,0,0,0-.58,1.52H444.4c-2.88,0-5.42-.44-7.36-2.24a8.08,8.08,0,0,1-2.26,2.56,5.48,5.48,0,0,0-1.22-1.14,7.12,7.12,0,0,0,2.4-2.72,12.48,12.48,0,0,1-1.72-3.66l1.34-.48a10.49,10.49,0,0,0,1.06,2.56,19.52,19.52,0,0,0,.9-4.3h-3c.66-1.5,1.5-3.68,2.2-5.64h-2V50.6H439c-.64,1.84-1.46,4-2.16,5.78H438l.18,0Zm3.1-4.38h-2.42V50.8h2.42V49.22h1.54V50.8h3v2.64h1.3v1.4h-1.3v2.68h-3v1.22h3.28V60.2h-3.28v1.32h3.88V63h-3.88v2.14h-1.54V63h-3.16V61.52h3.16V60.2H439.6V58.74h2.68V57.52h-2.42V56.14h2.42v-1.3H439v-1.4h3.3Zm1.54,0v1.26h1.52V52.18Zm1.52,2.66h-1.52v1.3h1.52Z"/><path class="cls-58" d="M456.9,54h-7V52.56h3.44a19.21,19.21,0,0,0-1.38-2.7l1.36-.74a17.49,17.49,0,0,1,1.44,2.62l-1.38.82h3.52Zm-.5,12.38h-4.24v.9h-1.48V60.56h5.72Zm-.1-9.74h-5.58V55.22h5.58Zm-5.58,1.18h5.58V59.3h-5.58Zm1.44,4.2v2.86h2.74V62.06Zm11.48-12.38c-.12.28-.24.56-.38.82a16.31,16.31,0,0,0,5.22,4.6,7.5,7.5,0,0,0-1.24,1.5,19.06,19.06,0,0,1-4.8-4.64,15,15,0,0,1-4.74,4.72,8.08,8.08,0,0,0-1.16-1.34,13.28,13.28,0,0,0,5.5-6.16Zm3.6,11.3c-1.72,3.32-4.88,5.42-8.88,6.6a6,6,0,0,0-1-1.52c3.78-.9,6.82-2.82,8.32-5.72Zm-3.5-5.76A14.64,14.64,0,0,1,459,59.64a5.15,5.15,0,0,0-1.08-1.22,12.52,12.52,0,0,0,4.36-3.8Zm1.82,2.8a15.47,15.47,0,0,1-6.14,5.3A5,5,0,0,0,458.36,62a13,13,0,0,0,5.74-4.62Z"/><path class="cls-58" d="M471.82,61.18c1.54-.58,2.44-1.5,2.54-2.7a1.23,1.23,0,0,1-.28,0,1.56,1.56,0,0,1-1.68-1.6,1.58,1.58,0,0,1,1.7-1.6c1.26,0,1.92,1,1.92,2.5a4.87,4.87,0,0,1-3.68,4.68Z"/><path class="cls-58" d="M493.7,58.06a14.08,14.08,0,0,1-3.24,4.88,18.13,18.13,0,0,0,7.6,2.86,6.44,6.44,0,0,0-1.14,1.66A17.63,17.63,0,0,1,489,64.14a21.61,21.61,0,0,1-7.9,3.46A9.44,9.44,0,0,0,480,65.92a19.6,19.6,0,0,0,7.64-3,16.09,16.09,0,0,1-3.08-4.8l1.68-.52a11.67,11.67,0,0,0,2.8,4.16,11.39,11.39,0,0,0,2.76-4.26ZM487,54.82a23.67,23.67,0,0,1-5.24,4.6,11.86,11.86,0,0,0-1.46-1.36,16.92,16.92,0,0,0,4.88-3.94Zm10.56-1.14H480.36v-1.8h8.06a22.32,22.32,0,0,0-1.18-2.26L489,49a17.88,17.88,0,0,1,1.46,2.64l-.58.22h7.72Zm-5,.38a29.85,29.85,0,0,1,5.12,4.22l-1.56,1.22a28.19,28.19,0,0,0-5-4.38Z"/><path class="cls-58" d="M516.8,53V67.52h-1.94v-1.1H503.12V67.6h-1.86V53H508v-3.8h1.9V53Zm-13.68,1.88V58.8H508V54.92Zm0,9.68H508v-4h-4.86Zm6.76-9.68V58.8h5V54.92Zm5,9.68v-4h-5v4Z"/><path class="cls-58" d="M538.16,65.48V67H523.5V65.48h6.28V63.84h-4.44V62.38h4.44V60.92H526a11.3,11.3,0,0,1-2,2.54,9.64,9.64,0,0,0-.9-1.64,10.63,10.63,0,0,1-2.08,6,6.55,6.55,0,0,0-1.42-1.18c1.6-1.92,1.78-4.62,1.78-6.64V56.08H524a7.58,7.58,0,0,0-.82-.8c1.52-.26,3.26-.64,4.9-1-1.44-.4-2.88-.76-4.2-1l1-.78h-3.3V51h7.12a10.73,10.73,0,0,0-.92-1.3l1.3-.62a11.16,11.16,0,0,1,1.4,1.92h6.78v1.46h-3l.88.56a30.08,30.08,0,0,1-2.82,1.18c1.34.38,2.58.78,3.56,1.12l-.92.8h2.9V57.6H523.22V60c0,.58,0,1.2-.08,1.84a10.4,10.4,0,0,0,2.54-4l1.6.46c-.14.38-.3.74-.48,1.12h3V58h1.84v1.48h5.18v1.48h-5.18v1.46h4.66v1.46h-4.66v1.64Zm-4.06-9.4c-1.06-.38-2.42-.8-3.86-1.24-1.64.5-3.32.9-4.88,1.24Zm-8.32-3.66c1.46.34,3,.74,4.56,1.16a20.46,20.46,0,0,0,3.08-1.16Z"/><path class="cls-58" d="M547.3,64.42a17,17,0,0,1-6,2.58,7.94,7.94,0,0,0-1.12-1.36,16.73,16.73,0,0,0,5.72-1.86Zm10.46-3v1.56h-7.88v4.64h-1.82V62.94H540.3V61.38h7.76v-1.2h-5.9v-1.4h5.9v-1.2h-6.88V56.12h4a10.78,10.78,0,0,0-.88-1.72l1.16-.28h-5.1V52.64h3a15,15,0,0,0-1.46-2.7l1.62-.56a13.9,13.9,0,0,1,1.6,2.86l-1.06.4h2.24V49.2H548v3.44h2V49.2h1.76v3.44H554l-.78-.26a17.43,17.43,0,0,0,1.4-3l1.92.5a31.29,31.29,0,0,1-1.66,2.72h2.86v1.48h-5.24l1.56.4c-.44.6-.9,1.14-1.3,1.6H557v1.46h-7.08v1.2H556v1.4h-6.14v1.2Zm-11.62-7.26a8,8,0,0,1,.94,1.76l-.9.24h5.46l-.72-.22A15.49,15.49,0,0,0,552,54.12Zm6,9.54c1.76.64,4.2,1.6,5.54,2.24L556.48,67c-1.24-.62-3.68-1.68-5.5-2.38Z"/><path class="cls-58" d="M578,63.24H573.4V65.7c0,.88-.18,1.36-.9,1.62a11.56,11.56,0,0,1-3.28.24,6.17,6.17,0,0,0-.58-1.6c1.1,0,2.24,0,2.54,0s.4-.1.4-.34v-2.4h-6.64a15.56,15.56,0,0,1,2.72,2.18l-1.36,1.2a16.56,16.56,0,0,0-3.14-2.6l.9-.78H560v-1.5h11.58v-1c-4,.1-7.88.18-10.72.22l-.06-1.4c1.92,0,4.48,0,7.26,0v-.94h-6V53h6v-.94h-7.5V50.64h7.5v-1.4h1.82v1.4h7.38v1.44h-7.38V53H576v5.54h-1.86a16.51,16.51,0,0,1,3.1,1.8l-1.1,1a10.16,10.16,0,0,0-1-.74l-1.74,0v1.08H578Zm-14.16-8h4.2v-1h-4.2Zm4.2,2.18v-1h-4.2v1Zm1.82-3.18v1h4.34v-1Zm4.34,2.14h-4.34v1h4.34Zm-4.34,3.14,3.22,0a10.63,10.63,0,0,0-1.22-.52l.46-.38h-2.46Z"/><path class="cls-58" d="M596.12,57.56c-.86.7-1.84,1.4-2.82,2.08a9.1,9.1,0,0,0,5,5.6,6.36,6.36,0,0,0-1.22,1.5,10.56,10.56,0,0,1-5.24-6.16l-.8.48c.64,2.48.16,4.86-.92,5.7a2.71,2.71,0,0,1-2.16.8,16.18,16.18,0,0,1-1.66,0,4.51,4.51,0,0,0-.5-1.74c.7.06,1.34.1,1.78.1a1.4,1.4,0,0,0,1.2-.44,3.69,3.69,0,0,0,.7-2.84,29.29,29.29,0,0,1-8.32,4.08,6.67,6.67,0,0,0-1-1.54,23.58,23.58,0,0,0,9-4.26,8.5,8.5,0,0,0-.42-1.12,33.26,33.26,0,0,1-7.3,3.38,9,9,0,0,0-.94-1.46,25,25,0,0,0,7.5-3.14,8.22,8.22,0,0,0-.78-1,27.17,27.17,0,0,1-5.64,2.24,9,9,0,0,0-1-1.48,22.31,22.31,0,0,0,6.78-2.56h-4.06v-1.6h11.32v1.6H589.9a13,13,0,0,1-1.3,1,8.58,8.58,0,0,1,1.92,2.78,32.2,32.2,0,0,0,4.08-3.2Zm-13.66-2.38h-1.8V50.92H588a11.17,11.17,0,0,0-.62-1.3l1.94-.56a12.49,12.49,0,0,1,.94,1.86h7.22v4.26h-1.9V52.6h-13.1Z"/><path class="cls-58" d="M607,58.72c-.58-.52-1.62-1.32-2.56-2a8.55,8.55,0,0,1-3.38,3.16,5.59,5.59,0,0,0-1.22-1.26,6.71,6.71,0,0,0,3.38-3.28h-3v-1.5h3.44a7.76,7.76,0,0,0,.12-1.48h-2.94V50.88h2.94V49.22h1.78v1.66h2.52v1.46h-2.52a9.62,9.62,0,0,1-.12,1.48h3v1.5h-3.12c1,.7,2.26,1.6,2.94,2.18Zm7.8-3.4a26.8,26.8,0,0,1,3.38,2.74L617,59.24a26.61,26.61,0,0,0-3.72-3.18,7.19,7.19,0,0,1-3.32,3h5.46v8.4H613.5v-.6h-9.08v.68H602.6V59.08h6.92a7.34,7.34,0,0,0-1.08-1.14,6,6,0,0,0,3.24-2.62h-2.6v-1.5h3.12a8,8,0,0,0,.1-1.34v-.14h-2.86V50.88h2.86V49.22h1.78v1.66h3.1v1.46h-3.1v.16a7.48,7.48,0,0,1-.1,1.32h3.84v1.5Zm-1.3,5.34h-9.08v1.58h9.08Zm0,4.64V63.64h-9.08V65.3Z"/><path class="cls-58" d="M622.6,54.64a18.14,18.14,0,0,1-1.7,1.62,9.81,9.81,0,0,0-1.18-1.48,17,17,0,0,0,4.7-5.62l1.64.56a21.71,21.71,0,0,1-1.68,2.72v8.24H622.6ZM620,66a21.48,21.48,0,0,0,2-4.3l1.64.68a36.7,36.7,0,0,1-1.86,4.46Zm11.7-.44c1,0,1.2-.28,1.32-2.26a4.47,4.47,0,0,0,1.7.68c-.24,2.64-.8,3.28-2.88,3.28h-4.36c-2.56,0-3.22-.52-3.22-2.34V61.62h1.86v3.22c0,.58.24.68,1.48.68Zm-3.08-13a14,14,0,0,1-2,2.54,8.65,8.65,0,0,0-1.38-1.16,11.08,11.08,0,0,0,3-4.7l1.7.42c-.16.46-.32.88-.52,1.32h6.9l.28-.06,1.3.32c-.5,1.18-1.1,2.56-1.58,3.42l-1.58-.34c.24-.46.54-1.12.8-1.76Zm1.32,2.66a13.24,13.24,0,0,1-2.8,4.14,12.81,12.81,0,0,0-1.38-1.1,9.16,9.16,0,0,0,2.48-3.5ZM630,64.3a15.59,15.59,0,0,0-2.68-3.46l1.44-.78a16,16,0,0,1,2.8,3.34Zm2.94-3.7h-1.78V53.2h1.78Zm2.36-5.88a17.17,17.17,0,0,1,2.44,3.84l-1.56.82a21,21,0,0,0-2.38-4Zm.5,6.56a18.55,18.55,0,0,1,2.18,4.52l-1.78.7a18.28,18.28,0,0,0-2-4.58Z"/><path class="cls-58" d="M657.6,52.32s0,.64,0,.88c-.28,9-.52,12.12-1.32,13.12a2.23,2.23,0,0,1-1.74.94,21.48,21.48,0,0,1-3,0,4.36,4.36,0,0,0-.6-1.8c1.28.1,2.44.12,2.94.12a.9.9,0,0,0,.84-.34c.64-.66.9-3.68,1.16-11.22h-4.72a20.11,20.11,0,0,1-1.82,3.36,9.81,9.81,0,0,0-1.46-1v9.18h-5.42V67h-1.7V52.42H643a23.45,23.45,0,0,0,.7-3.24l2,.34c-.34,1-.72,2.06-1,2.9h3.2V56.2a19.1,19.1,0,0,0,3-7l1.8.42c-.24.92-.5,1.84-.82,2.72ZM642.42,54v3.8h3.72V54Zm3.72,9.84V59.46h-3.72v4.42Zm6.66-1.56a32.56,32.56,0,0,0-2.92-4.62l1.46-.82a35.91,35.91,0,0,1,3,4.46Z"/><path class="cls-58" d="M677.06,62.82a7.32,7.32,0,0,1-2.58,2.72,21.85,21.85,0,0,0,3.48.7,5,5,0,0,0-.9,1.32,19,19,0,0,1-4.26-1.14,19.36,19.36,0,0,1-4.48,1.18,4.78,4.78,0,0,0-.72-1.28,18.9,18.9,0,0,0,3.52-.72,12,12,0,0,1-1.56-1.08,13.69,13.69,0,0,1-1.42.88,11.43,11.43,0,0,0-1.16-1,12.08,12.08,0,0,0,1.58-.86,10.5,10.5,0,0,1-.8-1.06l1.3-.38a4.52,4.52,0,0,0,.56.7,9.29,9.29,0,0,0,1.1-1.06h-1.8V58.34c-.24.26-.48.5-.7.7-.08-.16-.24-.46-.42-.76a14,14,0,0,1-1.34,1.8v7.5h-1.64V61.7a11.34,11.34,0,0,1-1,.78,8.25,8.25,0,0,0-.74-1.44,18.27,18.27,0,0,1-1.8,6.52,6.81,6.81,0,0,0-1.68-.92c1.74-3.12,1.9-7.62,1.9-10.82V49.9h15.34v4.34H663.36v1.58a46.75,46.75,0,0,1-.26,5,11.2,11.2,0,0,0,3.46-3.46l.9.32-.12-.14a9.2,9.2,0,0,0,2.56-3.32l1.44.5c-.1.2-.22.44-.34.66h6.4v1.22h-7.12c-.18.28-.38.52-.56.78h7v4.3h-4.52l.26.08c-.16.22-.34.42-.52.64h3.86l.3,0Zm-13.7-11.46v1.42H675V51.36Zm4.38,3.56a12.56,12.56,0,0,1-3.18,3.16,9.57,9.57,0,0,0-1.06-1.18,9.61,9.61,0,0,0,2.76-2.44Zm2.7,4.18h4.68v-.8h-4.68Zm0,1.72h4.68V60h-4.68Zm.2,2.88a11.3,11.3,0,0,0,2.18,1.24,7,7,0,0,0,2-1.4h-4Z"/><path class="cls-58" d="M686,57.66a9.89,9.89,0,0,1-2.18,2.48,6.78,6.78,0,0,0-.8-1,22.61,22.61,0,0,1-1.8,8.36,6.22,6.22,0,0,0-1.56-.86c1.56-3.1,1.7-7.52,1.7-10.66V50.08h16.5v1.68H683.1V56c0,.86,0,1.8-.06,2.8a9.75,9.75,0,0,0,2.34-2.44h-1.76V55.06H686V53.88c-.68.1-1.36.18-2,.22a6.84,6.84,0,0,0-.42-1.1,20.78,20.78,0,0,0,4.78-.9l1.2.94a9.93,9.93,0,0,1-2,.56v1.46h2.2V56.4h-2.2v0c.52.32,1.82,1.22,2.16,1.5l-.9,1.16a10.8,10.8,0,0,0-1.26-1.18v2.28H686Zm5.36,7.84h6.52v1.56h-15.1V65.5h2.36v-4h1.78v4h2.64V60.1h.74a6.13,6.13,0,0,0-1-1.12A8.68,8.68,0,0,0,692,56.4h-1.66V55.06h2.54V53.84c-.74.1-1.52.18-2.22.22a3.9,3.9,0,0,0-.42-1.1A23.51,23.51,0,0,0,695.5,52l1.2,1a11.45,11.45,0,0,1-2.28.6v1.48h3.08V56.4h-3.08v.06l0,0c.68.4,2.94,2,3.5,2.4l-.86,1.24a32.72,32.72,0,0,0-2.66-2.24v2.34h-1.56V57.24a10,10,0,0,1-2.48,2.86h1v1.82h4.7v1.46h-4.7Z"/><path class="cls-58" d="M706.48,59.54c-.8.24-1.58.48-2.36.68v5.32c0,.92-.18,1.4-.7,1.68a5.63,5.63,0,0,1-2.54.34,7.1,7.1,0,0,0-.5-1.7,15,15,0,0,0,1.6,0c.24,0,.32-.08.32-.34V60.76l-2.1.58-.48-1.8c.72-.16,1.62-.38,2.58-.64V54.84H700V53.12h2.28v-3.9h1.82v3.9h2v1.72h-2V58.4l2.12-.58ZM715,65.32c1.16,0,1.38-.54,1.56-2.84a6,6,0,0,0,1.8.72c-.3,2.88-.9,3.9-3.22,3.9h-4.78c-2.52,0-3.3-.62-3.3-3.18V50.2h10.26V61h-2V59.68H709v4.24c0,1.18.22,1.4,1.56,1.4ZM709,52v5.9h2.34V52Zm6.4,0h-2.32v5.9h2.32Z"/><path class="cls-58" d="M727.92,59.36c.36.7.78,1.64,1,2.16l-.78.3h.26v1.84c0,1.52-.36,2.94-2.86,3.82a4.37,4.37,0,0,0-.84-1.06,3.28,3.28,0,0,0,2.08-1.4h-2.48V62.14h1.2v1.78h1.58v-2.1h.82c-.06-.18-.14-.36-.2-.56a17.84,17.84,0,0,0-3.72.52,9.1,9.1,0,0,0-.36-1.14,2.24,2.24,0,0,0,1.06-.52,10.73,10.73,0,0,0,1.06-.92,6.84,6.84,0,0,0-1.68.24,6,6,0,0,0-.38-1.16,1.4,1.4,0,0,0,.64-.36,9,9,0,0,0,1.34-1.66h-3.1V67.6h-1.76V50h7.42v6.24h-2.08l.74.38a13.46,13.46,0,0,1-1.48,1.68l1.3-.06c.28-.32.56-.64.82-1l1,.68a22.5,22.5,0,0,1-2.82,2.56l1.66-.14-.34-.74Zm-5.38-8v1.24h3.92V51.34Zm0,3.62h3.92V53.78h-3.92Zm14.8,10.4c0,1-.16,1.5-.74,1.8a6.17,6.17,0,0,1-2.74.36,6.77,6.77,0,0,0-.54-1.82c.8,0,1.64,0,1.88,0s.36-.1.36-.38V56.26h-4.12l.76.4a14.8,14.8,0,0,1-1.44,1.66l1.26-.06a10.29,10.29,0,0,0,.86-1l1,.68a24.4,24.4,0,0,1-2.82,2.6l1.64-.14a8,8,0,0,0-.36-.72l.92-.32a15.06,15.06,0,0,1,1,2.18l-1,.38c-.06-.18-.16-.4-.26-.66-2.94.32-3.44.42-3.74.56A5.44,5.44,0,0,0,729,60.7a2.57,2.57,0,0,0,1.06-.58,11.26,11.26,0,0,0,1-.92,5.14,5.14,0,0,0-1.68.26c-.08-.26-.24-.84-.38-1.16a1.31,1.31,0,0,0,.64-.36A7.4,7.4,0,0,0,731,56.26h-1.24V50h7.58Zm-4.9.24V65h-1.6V67.3H729.5V61.82h1.34v2.1h1.6V62.14h1.26V65.6Zm-.92-14.26v1.24h4V51.34Zm4,3.62V53.78h-4V55Z"/><path class="cls-58" d="M742.18,64.4A1.82,1.82,0,1,1,744,66.14,1.75,1.75,0,0,1,742.18,64.4Zm.42-10.72L742.54,51h2.94l-.06,2.64-.6,7.36h-1.64Z"/></g></g><path class="cls-30" d="M333.78,71.16V54.56a1.52,1.52,0,0,0-.46-1.32,1.46,1.46,0,0,0-.76-.22h-.12l-1.1.16V47.91l.69-.24a11.26,11.26,0,0,0,4.58-3.21.23.23,0,0,0,.06-.12L337,44h5.4V71.15Z"/><path class="cls-59" d="M332.76,48.25s-.46.11-.46.28v3.39s-.06,0,.18,0a2.15,2.15,0,0,1,2.2,1.32l.11,1.61V70.12h6.61V45h-3.93a11.22,11.22,0,0,1-4.7,3.24Z"/><path class="cls-30" d="M346.45,71.16V54.56c0-.92-.28-1.14-.46-1.32a1.4,1.4,0,0,0-.75-.22h-.13l-1.1.16V47.91l.7-.24a11.26,11.26,0,0,0,4.58-3.21.23.23,0,0,0,.06-.12l.28-.34H355V71.15Z"/><path class="cls-60" d="M345.43,48.25s-.46.11-.46.28v3.39s-.06,0,.17,0a2.15,2.15,0,0,1,2.2,1.32l.12,1.61V70.12h6.61V45h-3.93a11.22,11.22,0,0,1-4.7,3.24Z"/><path class="cls-30" d="M358.85,71.16V54.56a1.52,1.52,0,0,0-.46-1.32,1.4,1.4,0,0,0-.75-.22h-.13l-1.1.16V47.91l.69-.24a11.14,11.14,0,0,0,4.59-3.21.23.23,0,0,0,.06-.12L362,44h5.4V71.15Z"/><path class="cls-61" d="M357.83,48.25s-.46.11-.46.28v3.39s-.06,0,.17,0a2.15,2.15,0,0,1,2.2,1.32l.12,1.61V70.12h6.61V45h-3.93a11.22,11.22,0,0,1-4.7,3.24Z"/><path class="cls-30" d="M371.52,71.16V54.56c0-.92-.28-1.14-.46-1.32a1.4,1.4,0,0,0-.75-.22h-.13l-1.1.16V47.91l.7-.24a11.26,11.26,0,0,0,4.58-3.21.23.23,0,0,0,.06-.12l.28-.34h5.4V71.15Z"/><path class="cls-62" d="M370.5,48.25s-.46.11-.46.28v3.39s-.06,0,.18,0a2.15,2.15,0,0,1,2.2,1.32l.11,1.61V70.12h6.61V45h-3.93a11.22,11.22,0,0,1-4.7,3.24Z"/><g class="cls-63"><polygon class="cls-64" points="44.25 16.16 44.25 16.17 52.17 20.74 52.17 30.46 52.18 30.47 52.18 20.74 44.25 16.16 44.25 16.16"/><polygon class="cls-64" points="28.99 34.85 36.79 39.35 36.79 45.99 36.79 46.01 36.79 46.01 36.79 45.9 36.79 39.35 28.99 34.85 28.99 34.85"/><polygon class="cls-64" points="173.16 23.03 173.17 23.02 173.17 6.83 185 0 184.99 0 173.16 6.83 161.33 0 161.33 0 173.16 6.83 173.16 23.03"/><rect class="cls-64" x="213.59" y="28.56" width="2.37" transform="translate(14.49 111.21) rotate(-30)"/><polygon class="cls-64" points="209.5 12.2 207.57 13.34 210.67 15.13 209.5 12.2"/><path class="cls-64" d="M1017.33,0H198.77V8.26l5.25,3L211.37,7l4.38,11.08,8.61,5L219,26.16h0L224.36,23V34l0,0L232,38.34a4.15,4.15,0,0,1,2-.53,4.22,4.22,0,0,1,4.22,4.12L250,48.66l-25.6,15h0L250,48.7V79l-1.7,1h769c2.58,0,4.67-1.8,4.67-4V4C1022,1.8,1019.91,0,1017.33,0Z"/><polygon class="cls-64" points="211.75 30.31 198.77 37.8 198.77 37.8 211.75 30.31 211.75 30.31 211.75 30.31"/><path class="cls-64" d="M173.16,64.5h0l-25.6-14.79V0H51.88A2.44,2.44,0,0,1,50.8.28L48.79,5,52.43,3l15.13,8.88L52.18,20.74l15.38-8.88V46.51L52.18,55.38v0L36.8,64.27h0l-15.4,8.9V54.88h0v18.3L6,64.1V45.9l13.77,8L6,45.88l7-4a2.53,2.53,0,0,1,2.53-2.48,2.48,2.48,0,0,1,1.21.32L21.39,37h0V30.47l3.25,1.88h0l-3.25-1.88,5.18-3,2.63-6.66,4.42,2.59,3.15-1.81V11.86L42.26,15h0l-5.47-3.16,9-5.08L48.6,0H4.67C2.09,0,0,1.8,0,4V76c0,2.2,2.09,4,4.67,4H200l-1.25-.72Z"/><polygon class="cls-64" points="30.34 23.96 29.64 25.72 31.5 24.64 30.34 23.96"/><rect class="cls-64" x="27.17" y="33.08" height="1.43" transform="translate(-15.68 40.43) rotate(-60)"/><polygon class="cls-65" points="184.99 0 161.33 0 173.16 6.83 184.99 0"/><polygon class="cls-66" points="198.76 8.25 198.77 8.26 198.77 0 190.81 0 195.17 10.32 198.76 8.25"/><polygon class="cls-66" points="173.17 23.02 186.35 15.41 186.35 15.41 186.35 0 185 0 173.17 6.83 173.17 23.02"/><rect class="cls-66" x="198.76" y="37.81" width="0.01"/><polygon class="cls-66" points="188.25 3.1 188.25 14.32 192.06 12.12 188.25 3.1"/><polygon class="cls-67" points="186.35 15.41 186.35 15.41 186.35 15.41 186.35 15.41"/><polygon class="cls-67" points="186.86 15.12 188.25 14.32 188.25 3.1 186.94 0 186.35 0 186.35 15.41 186.86 15.12"/><polygon class="cls-67" points="173.16 64.5 173.16 64.5 173.16 23.03 173.16 6.83 161.33 0 147.56 0 147.56 49.71 173.16 64.5"/><polygon class="cls-68" points="213.75 40.14 213.75 40.14 219.36 36.88 215.8 27.97 213.75 29.16 213.75 40.14 211.75 41.3 211.75 30.31 198.77 37.8 198.76 37.81 198.76 48.86 198.76 48.86 212.82 40.69 213.75 40.14"/><polygon class="cls-68" points="224.36 33.97 224.36 23.03 218.95 26.16 222.47 35.07 224.36 33.97"/><polygon class="cls-69" points="198.76 37.81 198.76 37.81 173.16 23.03 173.16 64.5 198.76 79.28 198.76 79.27 198.76 48.86 198.76 37.81"/><polygon class="cls-70" points="213.75 29.15 213.75 29.15 213.75 29.16 215.8 27.97 210.67 15.13 207.57 13.34 197.11 19.48 213.75 29.15"/><polygon class="cls-70" points="224.36 23.03 215.75 18.06 218.95 26.16 224.36 23.03"/><polygon class="cls-70" points="188.25 14.33 194.53 17.98 192.06 12.12 188.25 14.32 186.86 15.12 188.25 14.33"/><polygon class="cls-70" points="195.17 10.32 197.25 15.26 204.02 11.29 198.77 8.26 198.76 8.25 195.17 10.32"/><polygon class="cls-70" points="198.76 37.81 198.77 37.8 211.75 30.31 186.35 15.41 186.35 15.41 173.17 23.02 173.16 23.03 198.76 37.81"/><polygon class="cls-71" points="250 48.7 224.36 63.64 224.37 80 248.3 80 250 79 250 48.7"/><path class="cls-72" d="M234,46.27a4.17,4.17,0,0,1-2.54-.87l-5.15,2.11,4,2.33a4.94,4.94,0,0,1,2.08-.36c2.46,0,4.46,1.37,4.46,3.05s-2,3.06-4.46,3.06S228,54.22,228,52.53a2.33,2.33,0,0,1,.46-1.34l-16.66-9.88,1.07-.62-14.06,8.17,25.6,14.78h0l25.6-15-11.7-6.73s0,.07,0,.11A4.23,4.23,0,0,1,234,46.27Z"/><path class="cls-72" d="M225.84,43.6l4-1.77a4.22,4.22,0,0,1,2.2-3.49L224.4,34l0,0-1.89,1.1Z"/><polygon class="cls-72" points="222.77 45.41 219.36 36.88 213.75 40.14 222.77 45.41"/><polygon class="cls-73" points="224.36 63.64 224.36 63.64 198.76 48.86 198.76 48.86 198.76 79.27 198.76 79.28 200.01 80 224.37 80 224.36 63.64 224.36 63.64"/><polygon class="cls-74" points="211.75 30.31 211.75 30.31 211.75 30.3 213.75 29.15 197.11 19.48 195.55 20.4 194.53 17.98 188.25 14.33 186.86 15.12 186.35 15.41 186.35 15.41 211.75 30.31"/><path class="cls-75" d="M213.75,40.14l-.93.55-1.07.62,16.66,9.88a2.33,2.33,0,0,0-.46,1.34c0,1.69,2,3.06,4.46,3.06s4.46-1.38,4.46-3.06-2-3.05-4.46-3.05a4.94,4.94,0,0,0-2.08.36l-4-2.33-2.36,1-1.22-3.07-9-5.27Z"/><path class="cls-76" d="M192.06,12.12,194.53,18l1,2.42,1.56-.92,10.46-6.15,1.93-1.13,1.17,2.93L215.8,28h0l3.56,8.91,3.41,8.53L224,48.48l2.36-1,5.15-2.11A4.2,4.2,0,0,1,229.81,42c0-.07,0-.14,0-.21l-4,1.77-3.37-8.53L219,26.16h0l-3.2-8.1L211.37,7,204,11.29l-6.77,4-2.08-4.94L190.81,0h-3.87l1.31,3.1Z"/><path class="cls-77" d="M229.83,41.83c0,.07,0,.14,0,.21a4.23,4.23,0,0,0,8.46,0s0-.08,0-.11A4.22,4.22,0,0,0,234,37.81a4.15,4.15,0,0,0-2,.53A4.22,4.22,0,0,0,229.83,41.83Z"/><polygon class="cls-78" points="213.75 29.15 213.75 29.15 211.75 30.3 211.75 30.31 211.75 30.31 211.75 41.3 213.75 40.14 213.75 29.16 213.75 29.16 213.75 29.15"/><polygon class="cls-65" points="36.79 11.85 42.26 15.01 45.74 6.77 36.79 11.85"/><path class="cls-65" d="M51.47,10.59a1.32,1.32,0,0,1-.23-.74c0-1,1.2-1.83,2.68-1.83h0c1.48,0,2.68.82,2.68,1.83s-1.2,1.84-2.68,1.84a3.53,3.53,0,0,1-1.5-.33l-8.17,4.8,7.93,4.58,15.38-8.89L52.43,3,48.79,5l-4,9.48Z"/><polygon class="cls-66" points="38.96 22.84 42.26 15.02 36.79 11.86 36.79 21.6 36.8 21.59 38.96 22.84"/><polygon class="cls-66" points="43.11 18.49 40.82 23.91 43.11 25.23 43.11 18.49"/><polygon class="cls-66" points="44.1 25.8 44.16 25.84 44.25 25.89 44.25 25.89 52.17 30.46 52.17 20.74 44.25 16.17 44.25 25.89 44.1 25.8"/><polygon class="cls-67" points="44.1 25.8 44.25 25.89 44.25 16.17 44.25 16.16 44.25 16.16 44.13 16.09 43.11 18.49 43.11 25.23 44.1 25.8"/><polygon class="cls-67" points="52.18 30.47 52.18 55.38 67.56 46.51 67.56 11.86 52.18 20.74 52.18 30.47 52.18 30.47"/><polygon class="cls-68" points="25.73 52.38 36.79 46.01 36.79 45.99 25.73 52.38"/><polygon class="cls-68" points="36.79 39.35 28.99 34.85 28.99 34.85 28.99 41.45 27.79 40.75 27.79 34.15 26.55 33.44 24.41 38.8 36.79 45.99 36.79 39.35"/><polygon class="cls-68" points="24.66 32.35 21.41 30.47 21.41 37.05 22.55 37.71 24.66 32.35"/><polygon class="cls-69" points="36.79 39.35 36.79 45.9 36.79 46.01 36.8 46 36.8 64.27 52.18 55.4 52.18 55.38 52.18 30.47 36.79 39.35"/><polygon class="cls-70" points="27.79 34.15 27.79 34.15 37.78 28.34 31.5 24.64 29.64 25.72 26.55 33.44 27.79 34.15 27.79 34.15"/><polygon class="cls-70" points="21.41 30.47 24.66 32.35 26.59 27.48 21.41 30.47"/><polygon class="cls-70" points="28.99 34.85 36.79 39.35 52.18 30.47 52.18 30.47 52.17 30.46 44.25 25.89 28.99 34.85"/><polygon class="cls-70" points="37.71 25.8 38.96 22.84 36.8 21.59 36.79 21.6 33.64 23.41 37.71 25.8"/><polygon class="cls-70" points="44.16 25.84 44.1 25.8 43.11 25.23 40.82 23.91 39.33 27.44 43.11 25.24 44.16 25.84"/><polygon class="cls-79" points="6 45.9 6 64.1 21.4 73.17 21.4 54.88 19.77 53.92 6 45.9"/><path class="cls-80" d="M18.12,41.78l2.4,1.06,2-5.13-1.14-.66h0L16.8,39.68A2.53,2.53,0,0,1,18.12,41.78Z"/><path class="cls-80" d="M25.73,52.38,36.79,46,24.41,38.8l-2,5.13,5.42-3.17,1.2.7L19,47.4a1.43,1.43,0,0,1,.28.8c0,1-1.2,1.84-2.68,1.84s-2.68-.83-2.68-1.84,1.2-1.82,2.68-1.82a3.08,3.08,0,0,1,1.24.2l2.39-1.39-3.1-1.27a2.51,2.51,0,0,1-1.52.52,2.54,2.54,0,0,1-2.54-2.54s0,0,0-.06l-7,4,13.74,8,1.63.95h0Z"/><polygon class="cls-81" points="36.79 46.01 36.79 46.01 25.73 52.38 21.41 54.88 21.4 54.88 21.4 73.18 36.8 64.28 36.8 64.27 36.8 46 36.79 46.01"/><polygon class="cls-74" points="27.79 34.15 28.99 34.85 28.99 34.85 28.99 34.85 28.99 34.85 44.25 25.89 44.25 25.89 44.16 25.84 43.11 25.24 39.33 27.44 38.72 28.89 37.78 28.34 27.79 34.15"/><path class="cls-34" d="M44.25,16.16h0l8.17-4.8a3.53,3.53,0,0,0,1.5.33c1.48,0,2.68-.83,2.68-1.84S55.4,8,53.92,8h0c-1.48,0-2.68.82-2.68,1.83a1.32,1.32,0,0,0,.23.74l-6.68,3.92-.66,1.58.12.07Z"/><path class="cls-75" d="M16.58,46.38c-1.48,0-2.68.81-2.68,1.82S15.1,50,16.58,50s2.68-.82,2.68-1.84a1.43,1.43,0,0,0-.28-.8l10-5.94-1.2-.7-5.42,3.17-.74,1.84-1.42-.58-2.39,1.39A3.08,3.08,0,0,0,16.58,46.38Z"/><path class="cls-76" d="M42.26,15h0L39,22.84l-1.25,3-4.07-2.39-4.42-2.59-2.63,6.66-1.93,4.87h0l-2.11,5.36-2,5.13-2.4-1.06s0,.08,0,.12a2.5,2.5,0,0,1-1,2l3.1,1.27,1.42.58.74-1.84,2-5.13,2.14-5.36h0l3.09-7.72.7-1.76,1.17.68,6.27,3.7.94.55.61-1.45,1.49-3.53,2.29-5.42,1-2.4.66-1.58,4-9.48,2-4.75h-.08A2.52,2.52,0,0,1,49.56,0h-1L45.74,6.77Z"/><path class="cls-77" d="M50.8.28A2.44,2.44,0,0,0,51.88,0H49.56a2.52,2.52,0,0,0,1.16.29Z"/><path class="cls-77" d="M15.59,44.44a2.57,2.57,0,0,0,2.54-2.54s0-.08,0-.12a2.53,2.53,0,0,0-1.32-2.1,2.48,2.48,0,0,0-1.21-.32,2.53,2.53,0,0,0-2.53,2.48s0,0,0,.06A2.54,2.54,0,0,0,15.59,44.44Z"/><polygon class="cls-78" points="27.79 34.15 27.79 34.15 27.79 34.15 27.79 34.15 27.79 40.75 28.99 41.45 28.99 34.85 28.99 34.85 27.79 34.15"/></g><g class="cls-82"><path class="cls-64" d="M961.31,54.88,949.79,30.7h0V23.76L1019,47.36h0v6.91l-10.5,6.07h0a94.48,94.48,0,0,1,10.74,19.3A4,4,0,0,0,1022,76V4c0-2.2-2.09-4-4.67-4H809.58L829.8,42.75l.08.16,0,.05h0v6.64h0L759.06,25.13h0V18.44h.08l.1,0h0L770,11.93A103.12,103.12,0,0,1,761.59,0H4.67C2.09,0,0,1.8,0,4V76c0,2.2,2.09,4,4.67,4H973.28Zm-131.43-12-.08-.17.08.15Z"/><path class="cls-64" d="M985.6,73.56,974.45,80H993a89.44,89.44,0,0,0-5.73-7.42Z"/><rect class="cls-83" x="794.47" y="-0.1" height="74.92" transform="translate(499.79 776.11) rotate(-70.95)"/><polygon class="cls-83" points="759.06 18.43 759.06 18.44 759.14 18.42 759.06 18.43"/><path class="cls-83" d="M770.05,11.94h0l-10.79,6.48h0l-.14.1L829.88,43h0l0-.05-.08-.16L809.58,0H766a112,112,0,0,0,7.85,9.68Z"/><polygon class="cls-84" points="759.08 18.51 759.22 18.41 759.24 18.4 759.14 18.42 759.06 18.44 759.06 25.13 829.88 49.59 829.88 42.95 829.88 42.95 759.08 18.51"/><path class="cls-85" d="M770.05,11.94l3.77-2.26A112,112,0,0,1,766,0h-4.38A103.12,103.12,0,0,0,770,11.93Z"/><polygon class="cls-78" points="829.88 42.86 829.88 42.84 829.8 42.69 829.88 42.86"/><polygon class="cls-86" points="974.43 80 974.45 80 985.6 73.56 974.43 80"/><path class="cls-86" d="M1008.47,60.35c-1.16-1.62-2.37-3.23-3.65-4.83L1019,47.36h0l-69.18-23.6v6.93h0v-6.9l23.73,49.8,13.77-8A85,85,0,0,1,997.3,80h20a5.24,5.24,0,0,0,1.88-.35,94.48,94.48,0,0,0-10.74-19.3Z"/><polygon class="cls-86" points="973.28 80 973.28 80 961.31 54.88 973.28 80"/><path class="cls-87" d="M1004.82,55.52c1.28,1.6,2.49,3.21,3.65,4.83h0l10.5-6.07V47.37h0Z"/><path class="cls-87" d="M973.52,73.59l-23.73-49.8v6.9h0l11.52,24.18,12,25.12h1.15l11.17-6.44,1.69-1A89.44,89.44,0,0,1,993,80h4.28a85,85,0,0,0-10-14.36Z"/></g></svg>