<svg width="24" height="24" viewBox="0 0 24 24" fill="none" xmlns="http://www.w3.org/2000/svg">
<path d="M2.91 20.37V3.24C2.91 2.6775 3.3825 2.205 3.945 2.205L16.785 2.16C17.3475 2.16 17.82 2.6325 17.82 3.195V7.8525H19.23V3.195C19.23 1.875 18.0975 0.75 16.785 0.75L3.945 0.795C2.6325 0.795 1.5 1.9275 1.5 3.24V20.3625C1.5 21.7275 2.58 22.8075 3.945 22.8075H8.2725V21.3975H3.945C3.3825 21.3975 2.91 20.925 2.91 20.3625V20.37Z" fill="white"/>
<path d="M19.5299 16.8598C20.3774 16.1548 20.9399 15.0748 20.9399 13.8523C20.9399 11.6848 19.1999 9.94482 17.0324 9.94482C14.8649 9.94482 13.1249 11.6848 13.1249 13.8523C13.1249 15.0748 13.6874 16.1548 14.5349 16.8598C12.3674 17.7973 10.8149 20.0098 10.8149 22.5523H12.2249C12.2249 19.9198 14.3924 17.7523 17.0249 17.7523C19.6574 17.7523 21.8249 19.9198 21.8249 22.5523H23.2349C23.2349 19.9648 21.6824 17.7973 19.5149 16.8598H19.5299ZM14.5874 13.8523C14.5874 12.4873 15.7199 11.3623 17.0774 11.3623C18.4349 11.3623 19.5674 12.4948 19.5674 13.8523C19.5674 15.2098 18.4349 16.3423 17.0774 16.3423C15.7199 16.3423 14.5874 15.2098 14.5874 13.8523Z" fill="white"/>
<path d="M15.24 5.7373H5.82751V7.1473H15.24V5.7373Z" fill="white"/>
<path d="M11.895 9.03003H5.82751V10.44H11.895V9.03003Z" fill="white"/>
</svg>
