<svg xmlns="http://www.w3.org/2000/svg" xmlns:xlink="http://www.w3.org/1999/xlink" width="177" height="40" viewBox="0 0 177 40">
  <defs>
    <linearGradient id="linear-gradient" x1="-1.671" y1="-30.711" x2="-1.681" y2="-30.711" gradientUnits="objectBoundingBox">
      <stop offset="0" stop-color="#0a1c1e"/>
      <stop offset="0.362" stop-color="#0c1d1f" stop-opacity="0.863"/>
      <stop offset="0.737" stop-color="#152225" stop-opacity="0.447"/>
      <stop offset="1" stop-color="#1f272b" stop-opacity="0"/>
    </linearGradient>
    <linearGradient id="linear-gradient-2" x1="-14.356" y1="-6.686" x2="-14.356" y2="-6.722" gradientUnits="objectBoundingBox">
      <stop offset="0" stop-color="#b90015"/>
      <stop offset="1" stop-color="#e23523"/>
    </linearGradient>
    <linearGradient id="linear-gradient-3" x1="-15.553" y1="-6.686" x2="-15.553" y2="-6.722" xlink:href="#linear-gradient-2"/>
    <linearGradient id="linear-gradient-4" x1="-16.722" y1="-6.686" x2="-16.722" y2="-6.722" xlink:href="#linear-gradient-2"/>
    <linearGradient id="linear-gradient-5" x1="-17.92" y1="-6.686" x2="-17.92" y2="-6.722" xlink:href="#linear-gradient-2"/>
    <clipPath id="clip-會員中心">
      <rect width="177" height="40"/>
    </clipPath>
  </defs>
  <g id="會員中心" clip-path="url(#clip-會員中心)">
    <g id="组_184" data-name="组 184" transform="translate(-760.248 -1212.754)">
      <rect id="Rectangle_22976" data-name="Rectangle 22976" width="133.286" height="39.655" transform="translate(779.269 1213.274)" fill="rgba(255,255,255,0)"/>
      <path id="Path_87430" data-name="Path 87430" d="M929.447,1292.535H866.274v-8.119h63.174v8.119Zm-23.747-5.361a1.563,1.563,0,0,0-1.542,1.432,1.6,1.6,0,0,0,.016.371,1.914,1.914,0,0,0,.411,1.238,1.668,1.668,0,0,0,1.234.551h.012a.4.4,0,0,0,.064,0,1.78,1.78,0,0,0,.827-.205,1.322,1.322,0,0,0,.756-1.032l-.69-.066a.871.871,0,0,1-.87.83h-.008a.743.743,0,0,1-.087,0c-.695,0-1.032-.428-1.032-1.308,0-.905.341-1.309,1.1-1.309h.026a.814.814,0,0,1,.8.689l.62-.067a.8.8,0,0,0-.209-.551,1.489,1.489,0,0,0-1.16-.551h-.141a.881.881,0,0,0-.128-.009Zm13.9.144h0v.483h.482v1.92a1.607,1.607,0,0,0,.14.761c.062.189.294.273.755.273a.941.941,0,0,0,.193-.029,1.364,1.364,0,0,1,.289-.039l-.069-.411h-.311a.412.412,0,0,1-.307-.14.507.507,0,0,1-.069-.342V1287.8h.62v-.483h-.62v-1.171l-.618.344v.826Zm-7.507,0h0v3.44h.617v-1.784a1.511,1.511,0,0,1,.138-.826c0-.134.127-.2.262-.27l.014-.007a1.266,1.266,0,0,1,.484-.139.466.466,0,0,1,.064,0,.559.559,0,0,1,.486.281c.068.066.068.278.068.483v2.2h.689v-2a.95.95,0,0,1,.14-.622.9.9,0,0,1,.706-.346h.054c.367,0,.551.083.621.278a1.224,1.224,0,0,1,.067.551v2.136h.69v-2.273a1.06,1.06,0,0,0-.935-1.171h-.118a.994.994,0,0,0-.118.006h-.036a1.345,1.345,0,0,0-1.135.621,1.1,1.1,0,0,0-.992-.627.689.689,0,0,0-.11,0h-.014a1.344,1.344,0,0,0-1.086.551v-.483h-.554Zm-33.421.042h0l1.136,3.349h.695l.739-2.624v.066c.059.248.124.441.137.481L882,1290.7h.69l1.167-3.447h-.683l-.621,2a.431.431,0,0,1-.043.188.255.255,0,0,0-.024.089c-.023.062-.049.123-.077.181v.01a.486.486,0,0,0-.061.22.409.409,0,0,1-.085-.21c-.014-.067-.032-.134-.053-.2a.452.452,0,0,0-.039-.178v-.006a.211.211,0,0,1-.026-.093l-.551-2h-.617l-.621,2-.071.139a4.71,4.71,0,0,1-.138.551,3.318,3.318,0,0,1-.207-.551l-.62-2.135h-1.252l-.612,2a.431.431,0,0,1-.046.188v.012a.2.2,0,0,0-.021.077,2.012,2.012,0,0,1-.077.187v.012a.51.51,0,0,0-.056.21.4.4,0,0,1-.084-.207v-.015c-.016-.077-.034-.135-.052-.2a.427.427,0,0,0-.042-.179h0a.235.235,0,0,1-.029-.094l-.621-2h-.617l-.625,1.995-.066.139a5.39,5.39,0,0,1-.137.551,2.85,2.85,0,0,1-.21-.551l-.612-2.136h-1.318l-.62,2a.443.443,0,0,1-.044.188.277.277,0,0,0-.024.089,1.541,1.541,0,0,1-.077.193v0a.476.476,0,0,0-.06.212.39.39,0,0,1-.077-.2v-.009l-.011-.044c-.012-.047-.026-.1-.047-.158a.435.435,0,0,0-.042-.184.247.247,0,0,1-.025-.094l-.551-2h-.621l-.62,2-.067.139a5.4,5.4,0,0,1-.138.551,2.7,2.7,0,0,1-.207-.551l-.62-2.136h-.69l1.171,3.447h.69l.758-2.615v.071c.068.262.136.477.139.482l.621,2.069h.69l1.135-3.343,1.134,3.343h.687l.756-2.619v.073c.068.268.137.48.137.481l.621,2.069h.69l1.136-3.341Zm30.871,3.333h0a1.293,1.293,0,0,0,.138,0,1.652,1.652,0,0,0,1.653-1.652,1.063,1.063,0,0,0-.007-.147,2.229,2.229,0,0,0-.551-1.447,2.149,2.149,0,0,0-1.17-.344h-.077a1.827,1.827,0,0,0-1.3.551,1.949,1.949,0,0,0-.416,1.243,1.633,1.633,0,0,0,.348,1.243,1.926,1.926,0,0,0,1.343.551Zm11.981-3.447,1.171,3.447h.69l.75-2.611h0v.06c.055.213.11.39.137.477h0l.62,2.069h.69l1.171-3.447h-.684l-.62,2a.439.439,0,0,1-.044.188.258.258,0,0,0-.024.089c-.023.062-.049.123-.077.182v.011a.5.5,0,0,0-.062.221.423.423,0,0,1-.084-.21c-.014-.064-.032-.13-.054-.2a.439.439,0,0,0-.042-.18h0a.239.239,0,0,1-.029-.094l-.551-2h-.622l-.612,2-.072.139a4.62,4.62,0,0,1-.138.551,3.185,3.185,0,0,1-.206-.551l-.621-2.136ZM918.15,1290h0v.689h.756V1290Zm-15.633,0h0v.689h.756V1290Zm-18.045,0h0v.689h.765V1290Zm15.5-3.029v3.718h.688v-4.745h-.414a3.053,3.053,0,0,1-1.516,1.171v.551a3.552,3.552,0,0,0,1.238-.69Zm-3.995,0v3.718h.689v-4.745h-.412a3.066,3.066,0,0,1-1.519,1.171v.551a3.582,3.582,0,0,0,1.238-.69Zm-4,0v3.718h.69v-4.745h-.417a3,3,0,0,1-1.508,1.171v.551a3.572,3.572,0,0,0,1.236-.69Zm-4,0v3.718h.69v-4.745h-.411a3.073,3.073,0,0,1-1.514,1.171v.551a3.517,3.517,0,0,0,1.234-.69Zm-22.664,5.562h-7.842v-8.12h7.837v8.12Zm-8.791,0h-5.272v-8.12h5.269v8.12Zm-6.226,0h-7.836v-8.12H850.3v8.12Zm-8.794,0h-4.941v-8.12h4.938v8.12Zm-5.9,0h-7.837v-8.12h7.835v8.12Zm-8.792,0h-5.264v-8.12h5.262v8.12Zm-6.223,0h-4.856v-8.12h4.855v8.12Zm89.026-2.245h-.1a1.17,1.17,0,0,1-.661-.206,1.468,1.468,0,0,1-.416-1.1,1.226,1.226,0,0,1,.411-1.038,1.18,1.18,0,0,1,.672-.206h.07a1.03,1.03,0,0,1,.707.278,1.361,1.361,0,0,1,.344.965,1.483,1.483,0,0,1-.207.826.944.944,0,0,1-.82.485Z" transform="translate(-23.438 -45.721)" fill="url(#linear-gradient)"/>
      <path id="Path_87431" data-name="Path 87431" d="M809.532,1256.045h-8.788v-18.491l-.132-1.806a2.073,2.073,0,0,0-1.892-1.212,1.327,1.327,0,0,0-.2.01h-.046a.639.639,0,0,1-.661-.351.5.5,0,0,1-.023-.255v-3.949c0-.495.542-.709.881-.8a12.871,12.871,0,0,0,5.35-3.691l.143-.166h5.37v30.71Z" transform="translate(-11.899 -7.751)" fill="url(#linear-gradient-2)"/>
      <path id="Path_87432" data-name="Path 87432" d="M803.5,1224.954a13.329,13.329,0,0,1-5.574,3.838s-.551.131-.551.337v4.015s-.069.059.208.059a2.425,2.425,0,0,1,.245-.012,2.558,2.558,0,0,1,2.363,1.578l.14,1.906v18.03h7.835v-29.751H803.5m-.441-.957h6.068v31.666h-9.749v-18.952l-.125-1.7a1.6,1.6,0,0,0-1.42-.864,1.068,1.068,0,0,0-.153.008h-.093a1.054,1.054,0,0,1-1.113-.661.97.97,0,0,1-.053-.454v-3.914c0-.284.121-.968,1.226-1.253a12.394,12.394,0,0,0,5.132-3.546Z" transform="translate(-11.018 -6.891)" fill="#fff"/>
      <path id="Path_87433" data-name="Path 87433" d="M851.554,1256.045h-8.79v-18.491l-.132-1.806a2.073,2.073,0,0,0-1.89-1.212,1.339,1.339,0,0,0-.2.01H840.5a.64.64,0,0,1-.661-.351.5.5,0,0,1-.023-.255v-3.949c0-.495.542-.709.881-.8a12.865,12.865,0,0,0,5.35-3.691l.143-.166h5.37v30.71Z" transform="translate(-38.906 -7.751)" fill="url(#linear-gradient-3)"/>
      <path id="Path_87434" data-name="Path 87434" d="M845.522,1224.954a13.326,13.326,0,0,1-5.574,3.838s-.551.131-.551.337v4.015s-.069.059.208.059a2.42,2.42,0,0,1,.245-.012,2.558,2.558,0,0,1,2.363,1.578l.139,1.906v18.03h7.835v-29.751h-4.673m-.441-.957h6.067v31.666h-9.75v-18.952l-.123-1.7a1.6,1.6,0,0,0-1.42-.864,1.076,1.076,0,0,0-.153.008H839.6a1.055,1.055,0,0,1-1.114-.661.966.966,0,0,1-.052-.454v-3.914c0-.284.12-.968,1.226-1.253a12.4,12.4,0,0,0,5.132-3.546Z" transform="translate(-38.024 -6.891)" fill="#fff"/>
      <path id="Path_87435" data-name="Path 87435" d="M892.665,1256.045h-8.792v-18.491l-.132-1.806a2.072,2.072,0,0,0-1.891-1.212,1.34,1.34,0,0,0-.2.01H881.6a.64.64,0,0,1-.661-.351.488.488,0,0,1-.019-.253v-3.951c0-.495.542-.709.881-.8a12.871,12.871,0,0,0,5.35-3.691l.143-.166h5.37v30.71Z" transform="translate(-65.327 -7.751)" fill="url(#linear-gradient-4)"/>
      <path id="Path_87436" data-name="Path 87436" d="M886.657,1224.954a13.328,13.328,0,0,1-5.574,3.838s-.551.131-.551.337v4.015s-.069.059.207.059a2.425,2.425,0,0,1,.245-.012,2.559,2.559,0,0,1,2.375,1.578l.139,1.906v18.03h7.835v-29.751h-4.673m-.441-.957h6.067v31.666h-9.75v-18.952l-.124-1.7a1.6,1.6,0,0,0-1.42-.864,1.075,1.075,0,0,0-.153.008h-.092a1.054,1.054,0,0,1-1.112-.661.966.966,0,0,1-.052-.454v-3.914c0-.284.12-.968,1.226-1.253a12.4,12.4,0,0,0,5.129-3.546Z" transform="translate(-64.467 -6.891)" fill="#fff"/>
      <path id="Path_87437" data-name="Path 87437" d="M934.7,1256.045h-8.791v-18.491l-.132-1.806a2.068,2.068,0,0,0-1.89-1.212,1.34,1.34,0,0,0-.2.01h-.046a.64.64,0,0,1-.661-.351.494.494,0,0,1-.023-.255v-3.949c0-.495.542-.709.881-.8a12.876,12.876,0,0,0,5.35-3.691l.143-.166H934.7v30.71Z" transform="translate(-92.34 -7.751)" fill="url(#linear-gradient-5)"/>
      <path id="Path_87438" data-name="Path 87438" d="M928.685,1224.954a13.331,13.331,0,0,1-5.574,3.838s-.551.131-.551.337v4.015s-.069.059.208.059a2.425,2.425,0,0,1,.246-.012,2.559,2.559,0,0,1,2.366,1.578l.14,1.906v18.03h7.834v-29.751h-4.673m-.441-.957h6.067v31.666h-9.749v-18.952l-.125-1.7a1.6,1.6,0,0,0-1.42-.864,1.071,1.071,0,0,0-.153.008h-.091a1.055,1.055,0,0,1-1.114-.661.971.971,0,0,1-.052-.454v-3.914c0-.284.121-.968,1.226-1.253a12.4,12.4,0,0,0,5.129-3.546Z" transform="translate(-91.474 -6.891)" fill="#fff"/>
      <g id="组_4" data-name="组 4" transform="translate(844.373 1222.268)">
        <path id="路径_9" data-name="路径 9" d="M969.448,1238.881c-.075.09-.135.2-.225.285a14.415,14.415,0,0,0,6.273,2.927,5.6,5.6,0,0,0-.885,1.066c-.36-.1-.751-.225-1.126-.36v3.887H963.339V1242.9c-.376.135-.736.255-1.11.36a5.335,5.335,0,0,0-.751-1.066c2.717-.69,5.373-2,6.739-3.752Zm3.977,3.9a14.811,14.811,0,0,1-2.4-1.066v.435h-5.193v-.36a15.821,15.821,0,0,1-2.176.991Zm-9.23,4.5h8.555v4.938h-1.426v-.406h-5.749v.465h-1.381Zm2.041-3.5a6.2,6.2,0,0,1,.766,1.651l-.99.33h1.771V1243.7h-3.257v2.071h1.441a6.533,6.533,0,0,0-.706-1.681Zm-.66,4.458v.825h5.749v-.825Zm5.749,2.626v-.84h-5.749v.84Zm-1.186-9.681a10.193,10.193,0,0,1-1.651-1.261,11.5,11.5,0,0,1-1.636,1.261Zm2.116,2.506h-3.332v2.071H970.6l-.93-.285a11.226,11.226,0,0,0,.75-1.756l1.171.33c-.33.646-.66,1.276-.931,1.711h1.591Z" transform="translate(-961.478 -1238.446)" fill="#070303"/>
        <path id="路径_10" data-name="路径 10" d="M1012.988,1250.857a43.892,43.892,0,0,1,4.428,1.561l-1.231.976a39.882,39.882,0,0,0-4.728-1.726l1.1-.811h-4.337l1.051.706a18.886,18.886,0,0,1-4.653,1.816,8.4,8.4,0,0,0-1.05-1.006,17.567,17.567,0,0,0,4.173-1.516h-2.6v-6.5h10.717v6.5Zm2.281-7.219h-9.486v-3.512h9.486Zm-8.751,2.582h7.88v-.856h-7.88Zm0,1.816h7.88v-.87h-7.88Zm0,1.816h7.88v-.886h-7.88Zm7.28-8.616h-6.619v1.291h6.619Z" transform="translate(-988.525 -1239.526)" fill="#070303"/>
        <path id="路径_11" data-name="路径 11" d="M1060.054,1241.309v7.175H1058.6v-.811h-3.9v4.773h-1.456v-4.773h-3.887v.886h-1.4v-7.25h5.283V1238.7h1.456v2.611Zm-6.814,5v-3.632h-3.887v3.632Zm5.358,0v-3.632h-3.9v3.632Z" transform="translate(-1017.058 -1238.608)" fill="#070303"/>
        <path id="路径_12" data-name="路径 12" d="M1090.441,1244.848a33.144,33.144,0,0,1-1.231,6.019l-1.4-.586a25.249,25.249,0,0,0,1.261-5.689Zm2.581-1.26v7.159c0,.706.165.826.961.826h2.536c.856,0,.991-.5,1.1-2.972a4.259,4.259,0,0,0,1.306.6c-.165,2.822-.571,3.677-2.312,3.677h-2.777c-1.756,0-2.251-.48-2.251-2.132v-7.159Zm.12-3.8a27.452,27.452,0,0,1,4.1,3.212l-1.036,1.066a26.468,26.468,0,0,0-4.007-3.348Zm6.5,4.368a26.686,26.686,0,0,1,1.981,5.583l-1.4.585a27.088,27.088,0,0,0-1.876-5.659Z" transform="translate(-1042.674 -1239.31)" fill="#070303"/>
      </g>
    </g>
  </g>
</svg>
