<svg xmlns="http://www.w3.org/2000/svg" xmlns:xlink="http://www.w3.org/1999/xlink" width="43.968" height="30.437" viewBox="0 0 43.968 30.437">
  <defs>
    <clipPath id="clip-path">
      <rect id="Rectangle_3460" data-name="Rectangle 3460" width="24.076" height="23.133" fill="none"/>
    </clipPath>
  </defs>
  <g id="Group_1075" data-name="Group 1075" transform="translate(-459.829 -282.793)">
    <g id="Group_1033" data-name="Group 1033" transform="matrix(0.966, 0.259, -0.259, 0.966, 465.816, 284.654)">
      <g id="Group_1032" data-name="Group 1032" clip-path="url(#clip-path)">
        <path id="Path_4197" data-name="Path 4197" d="M100.057,101.557l-.784-1.125q-1.622-2.329-3.245-4.658a4.125,4.125,0,0,1-.662-1.193,2.583,2.583,0,0,1,4.649-2.106c.582.842,1.17,1.679,1.757,2.517a.278.278,0,0,0,.049.042,2.619,2.619,0,0,1,2.275-.347.241.241,0,0,0,.192-.05,2.583,2.583,0,0,1,2.422-.612.283.283,0,0,0,.212-.044,2.644,2.644,0,0,1,3.3.032,7.544,7.544,0,0,1,1.749,1.915c.615.884,1.221,1.774,1.849,2.649a8.651,8.651,0,0,1,1.357,2.6,7.411,7.411,0,0,1,.151,3.673,7.192,7.192,0,0,1-1.477,3.128,7.452,7.452,0,0,1-10.044,1.429c-.734-.5-1.438-1.044-2.158-1.564-.8-.576-1.606-1.134-2.391-1.725a2.6,2.6,0,0,1,.443-4.388l.359-.172m13.631,2.033a5.75,5.75,0,0,0-.938-3.375q-.846-1.244-1.717-2.471c-.421-.592-.846-1.182-1.3-1.748a1.953,1.953,0,0,0-1.093-.757.663.663,0,0,0-.682.251.543.543,0,0,0-.04.609,2.015,2.015,0,0,0,.192.332c.275.4.557.792.833,1.19a.493.493,0,0,1-.072.732.482.482,0,0,1-.709-.176c-.5-.7-.984-1.415-1.487-2.115a.752.752,0,0,0-1.09-.159.855.855,0,0,0-.229,1.134c.41.592.824,1.181,1.236,1.772a.487.487,0,0,1-.1.7.464.464,0,0,1-.672-.131c-.255-.355-.5-.716-.754-1.074-.387-.55-.765-1.107-1.167-1.647a.761.761,0,0,0-1.084-.114.907.907,0,0,0-.212,1.115l1.6,2.284a.487.487,0,0,1-.072.716.471.471,0,0,1-.7-.15c-.3-.417-.59-.836-.882-1.256q-1.905-2.734-3.811-5.467a2.985,2.985,0,0,0-.418-.515.754.754,0,0,0-1,.039.725.725,0,0,0-.141.968c.36.536.732,1.065,1.1,1.595q1.131,1.624,2.264,3.246,1.144,1.639,2.288,3.277.658.944,1.311,1.892a.442.442,0,0,1,.043.459c-.142.318-.473.373-.815.129q-1.011-.722-2.017-1.451a.824.824,0,0,0-1.152.156.8.8,0,0,0,.177,1.145c.548.4,1.1.8,1.655,1.193.841.606,1.7,1.193,2.519,1.824a5.6,5.6,0,0,0,6.467.355,5.42,5.42,0,0,0,2.663-4.5" transform="translate(-91.411 -87.613)" fill="#1c84c6"/>
        <path id="Path_4204" data-name="Path 4204" d="M156.207,146.1a5.42,5.42,0,0,1-2.663,4.5,5.6,5.6,0,0,1-6.467-.355c-.822-.631-1.678-1.218-2.519-1.824-.552-.4-1.107-.79-1.655-1.193a.8.8,0,0,1-.177-1.145.824.824,0,0,1,1.152-.156q1.008.726,2.017,1.451c.342.244.673.189.815-.129a.442.442,0,0,0-.043-.459q-.654-.947-1.311-1.892-1.143-1.64-2.288-3.277-1.133-1.622-2.264-3.246c-.369-.53-.74-1.059-1.1-1.595a.725.725,0,0,1,.141-.968.754.754,0,0,1,1-.039,2.985,2.985,0,0,1,.418.515q1.909,2.731,3.811,5.467c.293.42.585.84.882,1.256a.471.471,0,0,0,.7.15.487.487,0,0,0,.072-.716l-1.6-2.284a.907.907,0,0,1,.212-1.115.761.761,0,0,1,1.084.114c.4.539.78,1.1,1.167,1.647.252.358.5.719.754,1.074a.464.464,0,0,0,.672.131.487.487,0,0,0,.1-.7c-.412-.591-.825-1.18-1.236-1.772a.855.855,0,0,1,.229-1.134.752.752,0,0,1,1.09.159c.5.7.99,1.41,1.487,2.115a.482.482,0,0,0,.709.176.493.493,0,0,0,.072-.732c-.276-.4-.558-.792-.833-1.19a2.016,2.016,0,0,1-.192-.332.543.543,0,0,1,.04-.609.663.663,0,0,1,.682-.251,1.953,1.953,0,0,1,1.093.757c.454.566.88,1.156,1.3,1.748q.872,1.226,1.717,2.471a5.75,5.75,0,0,1,.938,3.375" transform="translate(-133.93 -130.119)" fill="#fff"/>
      </g>
    </g>
    <path id="Path_4263" data-name="Path 4263" d="M0,7.742a2.641,2.641,0,0,1,.356-.109C2.364,7.3,4.37,6.974,6.379,6.662a.552.552,0,0,0,.544-.543C7.242,4.2,7.591,2.282,7.938.366A1.72,1.72,0,0,1,8.1,0L8.2.016c.028.122.061.244.083.367.342,1.954.676,3.91,1.036,5.861a.569.569,0,0,0,.361.371c1.558.28,3.121.532,4.683.786.516.084,1.036.15,1.552.238a1.038,1.038,0,0,1,.29.157c-.094.06-.183.157-.284.173-.948.158-1.9.3-2.85.452-1.13.183-2.258.376-3.387.559-.268.043-.345.213-.387.453q-.511,2.931-1.037,5.859c-.01.058-.037.113-.15.211a1.416,1.416,0,0,1-.182-.359C7.644,13.575,7.37,12,7.093,10.435a8.855,8.855,0,0,0-.216-1.109.6.6,0,0,0-.392-.34c-1.113-.206-2.232-.383-3.35-.563-.949-.153-1.9-.3-2.849-.452A1.7,1.7,0,0,1,0,7.873V7.742" transform="translate(481.502 282.793)" fill="#1c84c6"/>
    <path id="Path_4264" data-name="Path 4264" d="M31.07,35.619a3.6,3.6,0,0,1-.241-.633c-.226-1.221-.446-2.444-.639-3.671a.636.636,0,0,0-.631-.64c-1.282-.176-2.558-.4-3.834-.617a5.415,5.415,0,0,1-.712-.224c0-.052,0-.1,0-.154.6-.109,1.2-.225,1.8-.325.891-.147,1.783-.286,2.676-.423a.731.731,0,0,0,.711-.71c.166-1.179.391-2.351.608-3.523a6.119,6.119,0,0,1,.24-.751l.164.006c.115.618.234,1.236.345,1.855.142.787.3,1.573.408,2.365a.861.861,0,0,0,.874.809c1.35.184,2.695.409,4.041.622a1.792,1.792,0,0,1,.282.092c.008.047.016.095.025.142-.36.093-.715.211-1.08.274-1.175.2-2.351.4-3.531.566a.574.574,0,0,0-.558.54c-.216,1.223-.447,2.444-.671,3.666-.042.232-.079.464-.119.7l-.159.037" transform="translate(466.609 270.514)" fill="#1c84c6"/>
  </g>
</svg>
