<?xml version="1.0" encoding="utf-8"?>
<!-- Generator: Adobe Illustrator 25.4.1, SVG Export Plug-In . SVG Version: 6.00 Build 0)  -->
<svg version="1.1" id="圖層_1" xmlns="http://www.w3.org/2000/svg" xmlns:xlink="http://www.w3.org/1999/xlink" x="0px" y="0px"
	 viewBox="0 0 384.8 106.6" style="enable-background:new 0 0 384.8 106.6;" xml:space="preserve">
<style type="text/css">
	.st0{fill:none;}
	.st1{fill:#1CC6B3;}
	.st2{fill:#6D6D6D;}
	.st3{fill:#32B1E2;}
	.st4{fill:#848484;}
	.st5{fill:url(#新增圖樣色票_3);}
	.st6{fill:#FA626B;}
</style>
<pattern  x="-108.5" y="-365.6" width="54.1" height="54.1" patternUnits="userSpaceOnUse" id="新增圖樣色票_3" viewBox="0 -54.1 54.1 54.1" style="overflow:visible;">
	<g>
		<rect y="-54.1" class="st0" width="54.1" height="54.1"/>
		<rect x="0" y="-54.1" class="st1" width="54.1" height="54.1"/>
	</g>
</pattern>
<g>
	<g>
		<path class="st2" d="M162.7,54.6c1.3,0,2.2-0.5,2.6-1.4c-1.6-2.2-3.8-4.8-6.6-7.8l-5.8,6.5l-3.8,0c1.1-5.8,3.1-15.3,6.2-28.7
			c1.9-0.3,3.1-1.1,3.6-2.6l-11.5-1.4l-2.7,12.9c-1.2-1.7-2.4-3.4-3.7-5l-5.1,5.9l-1.5,0l2-9.5c1.8-0.3,2.9-1.1,3.3-2.4l-11.1-1.1
			L125.7,33l-8.8,0l0.2,2.7l26.7,0l-0.5,2.6l-9-2.4c-1.5,5.2-3.7,10.6-6.4,16.1l-15.9,0l5-23.6l4.9,0c1.3,0,2.1-0.5,2.5-1.4
			c-1.7-2.1-4-4.7-6.8-7.6l-6.1,6.4l-7.1,0l-50.7-1.1l3.2-15.1c1.8-0.3,3-1.1,3.4-2.5L47.6,5.5l-4.1,19.3l-32.2,0l0.1,2.7l31.6,0
			l-5.5,26.2C22,60.9,10.5,66.1,2.7,69.2L8,80.6c1-0.5,1.7-1.5,2.2-2.8c10.3-7.5,19.1-14.5,26.5-20.9l-4.1,19.5
			c-0.3,1.2-1,1.9-2.3,1.9c-1.4,0-5.3-0.2-11.7-0.7l-0.2,1.1c3.6,0.7,6.1,2,7.4,3.8c0.9,1.3,1.2,3.8,0.7,7.6
			c5.6-0.5,9.4-1.7,11.5-3.6c2.1-1.9,3.6-5,4.5-9.2l8-37.9c-0.2,10.8,1,19.5,3.7,26c2.6,6.5,6.7,12.1,12.4,16.8
			c1.1-2.6,2.6-4.8,4.5-6.7c1.9-1.9,3.8-3,5.9-3.5l0.4-1C67.1,66.6,60,60.4,56.2,52.4C62.7,49,69.4,44.9,76.2,40
			c1.7,0.2,2.8-0.2,3.4-1.1l-10-8.2c-3.9,6.3-8.8,12.9-14.5,19.7c-2.1-5-3.3-10.6-3.5-16.7l1.3-6.2l42.6,0.9L84.3,81.9
			c-0.6,0.1-1.6,0.3-2.9,0.6c-1.3,0.3-2.2,0.4-2.6,0.5l0.4,11.6c1.2-0.3,2.2-1.1,2.9-2.5c5.6-3.2,10.8-6.3,15.5-9.3l-4.5,21.2l1.3,0
			c1.2,0,2.4-0.2,3.6-0.5c1.1-0.4,2-0.7,2.6-1.1c0.6-0.4,0.9-0.7,1-1l10.2-48.1l0,1.3l28.7,0c-1.8,11.2-2.4,20.3-2,27.2
			c-7,8.6-14.8,15.3-23.5,20.1l0.5,1.1c8.7-3.4,16.6-8.3,23.7-14.6c0.6,3.9,1.8,7.4,3.5,10.3c0.7,1.3,1.6,2.4,2.7,3.3
			c1.1,0.9,2.3,1.5,3.8,1.9c1.4,0.3,2.8-0.1,4.2-1.3c1.5-1.2,1.7-4.2,0.6-8.9l4.7-14.8l-0.8-0.3c-2.4,4.6-4.5,8.1-6.2,10.6
			c-0.8,1.4-1.5,1.6-2,0.4c-1.4-2.4-2.3-5.4-2.6-9.1c4.9-5.6,9.2-11.8,12.9-18.6c1.7,0.1,2.8-0.4,3.5-1.5l-9.8-3.7
			c-1.9,4.7-4.2,9.1-6.8,13.3c0.2-4.2,0.9-9.4,1.9-15.6L162.7,54.6z M98.4,79.1l-6.2,1.2l3.4-16.3l5.9,0L98.4,79.1z M102,61.6
			l-5.9,0L99.4,46l5.9,0L102,61.6z M100,43.4l3.2-14.9l5.9,0.1l-3.1,14.8L100,43.4z M140.8,51.9l-10.9,0c4.1-3.6,7.6-7.5,10.8-11.8
			c0.9,0,1.7-0.2,2.3-0.7C142.4,42.6,141.7,46.7,140.8,51.9z"/>
		<path class="st2" d="M155.8,27.5c1.2,5.2,1.5,9.7,0.7,13.5c0.1,0.2,0.3,0.4,0.4,0.5c1.5,1.6,3.3,1.8,5.3,0.4
			c1.9-1.3,2.8-3.2,2.7-5.6c-0.1-3.8-2.8-6.9-8-9.3L155.8,27.5z"/>
		<path class="st2" d="M123.2,50.8c1.9-1.1,3-2.8,3.3-5.1c0.4-3.7-1.6-7-6.1-9.8l-1.1,0.4c0.3,4.8,0,9.1-1.1,13.1
			C119.5,51.3,121.2,51.8,123.2,50.8z"/>
		<path class="st3" d="M122.8,89l-0.6,3l1.1,0c1.1,0,2.5-0.3,4.1-0.9c1.6-0.6,2.5-1.1,2.6-1.5l5.5-25.8c1.3-0.2,2.3-0.8,3-1.6
			l-6.1-5.9l-4.4,4.1l-6.2,0l-7-3.5L106.6,96l1.2,0c1,0,2-0.2,3.1-0.5c1.1-0.4,1.9-0.7,2.6-1.1c0.7-0.4,1-0.7,1.1-1l0.9-4.3
			L122.8,89z M120.9,62.9l7.4,0l-2.1,10l-7.4,0L120.9,62.9z M118.3,75.5l7.4,0l-2.3,11l-7.4,0L118.3,75.5z"/>
		<path class="st2" d="M24.6,52.6c2.2,0.9,4.2,0.3,6.1-1.9c2-2.3,2.6-5,1.9-8c-1.2-5-5.8-8.6-13.7-10.7L18,32.6
			c1.5,2.6,2.7,5.6,3.6,9c0.9,3.4,1.2,6.6,1,9.7C23.2,51.9,23.9,52.3,24.6,52.6z"/>
		<path class="st4" d="M65.9,21.4c0.5,0.3,0.9,0.5,1.4,0.6c2.2,0.7,4.2,0.1,5.9-1.9c1.7-1.9,2.1-4,1.2-6.2
			c-1.4-3.6-5.8-5.3-13.2-5.1l-0.9,0.6c1.4,1.5,2.7,3.3,3.8,5.6C65.2,17.2,65.8,19.4,65.9,21.4z"/>
	</g>
	<g>
		<path class="st2" d="M255.3,40.5c-6,1.8-10.4,3-13.3,3.8l3.1-14.7l10.9,0c1.4,0,2.2-0.5,2.6-1.4c-1.4-2.3-3.3-5.2-5.9-8.7l-6,7.5
			l-1,0l3.7-17.5c1.9-0.2,3.2-1.1,3.6-2.6l-12-1.2L236.4,27l-11.6,0l0.1,2.7l11,0l-3.7,17.3c-5.9,1.6-10.4,2.7-13.6,3.3l1.4,12.4
			c1.1-0.4,2-1.2,2.6-2.5c0.7-0.4,3.3-1.7,7.7-4.1l-4.6,21.6c-0.2,0.9-0.8,1.4-1.9,1.4c-1,0-3.9-0.1-8.8-0.4l-0.3,1.2
			c2.9,0.5,4.8,1.6,5.7,3.3c0.6,1.4,0.7,3.8,0.1,7.2c4.9-0.5,8.3-1.6,10.1-3.4c1.8-1.8,3.2-4.7,4-8.7l5.9-27.9
			c5.1-2.9,10-5.8,14.6-8.7L255.3,40.5z"/>
		<path class="st2" d="M320.9,35.8c2.2,0.7,4.1,0,5.8-2c1.6-2.1,2-4.2,1-6.5c-1.5-3.9-6.2-6-13.8-6l-0.8,0.7
			c3.8,4.4,6.1,8.8,6.7,13.3C320.1,35.5,320.5,35.7,320.9,35.8z"/>
		<path class="st2" d="M312.8,53.9c0.4,0.2,0.8,0.3,1.2,0.4c2.3,0.6,4.3,0,5.9-2c1.6-2.1,1.9-4.4,0.9-6.7c-1.7-3.9-6.6-5.8-14.6-5.7
			l-0.8,0.6c1.7,1.6,3.2,3.7,4.6,6.2C311.5,49.3,312.4,51.7,312.8,53.9z"/>
		<path class="st2" d="M366.4,42.7l-6.1,0c1.3-0.8,2-1.9,2.3-3.4c0.2-1.5-0.4-2.8-1.9-4c6.9-1.7,12.4-3.7,16.7-5.8
			c1.7-0.1,2.9-0.4,3.6-1l-6.7-8.9l-6.3,5.4l-34.3,0l0.3,2.7l32.2,0c-1.7,1.5-4.3,3.6-7.8,6.2c-3.7-1.6-9.2-2.6-16.5-2.8l-0.7,1.2
			c5.6,2.2,9.5,5.5,11.7,9.9c0,0.1,0.1,0.1,0.2,0.3c0.1,0.1,0.2,0.2,0.2,0.3l-12.7,0l-8.8-4.2L321,89l1.3,0c1.8,0,3.6-0.4,5.5-1.3
			c1.9-0.9,2.9-1.6,3-2.2l3.1-14.7l8.9,0l-3.7,17.5l1.6,0c1.4,0,2.6-0.2,3.9-0.5c1.2-0.3,2.2-0.7,2.8-1c0.6-0.4,0.9-0.6,1-0.9
			l3.2-15.1l9.6,0l-1.5,7c-0.2,0.9-0.7,1.4-1.6,1.4c-0.8,0-2.5-0.1-5-0.3l-0.3,1.3c2,0.4,3.3,1.3,3.7,2.7c0.3,0.9,0.1,3-0.4,6.3
			c4.4-0.4,7.4-1.4,9.1-3c1.6-1.6,2.8-4.2,3.6-7.7l6.7-31.7c1.6-0.3,2.8-0.9,3.8-1.9l-7.6-7.7L366.4,42.7z M343.4,68.4l-8.9,0
			l2.2-10.4l8.9,0L343.4,68.4z M346.1,55.4l-8.9,0l2.2-10.3l8.9,0L346.1,55.4z M361.8,68.4l-9.6,0l2.2-10.4l9.6,0L361.8,68.4z
			 M364.5,55.4l-9.6,0l2.2-10.3l9.6,0L364.5,55.4z"/>
		<path class="st2" d="M321.7,91.4c-3.3-0.8-6.1-2.7-8.2-5.7l3.4-16.3c2.1-0.3,3.6-1,4.7-2l-8.2-8.7l-5.8,6.3L290,65.1l2.1-10
			c1.5-0.3,2.8-0.9,3.8-1.9l-7.7-7.6l-5.6,5.3l-18,0l-8.9-4.3l-9.3,44l1.4,0c1.8,0,3.7-0.4,5.6-1.2c1.9-0.8,2.9-1.5,3-2.1l0.9-4.1
			l19.3,0l-1.4,6.5l1.7,0c1.4,0,3.1-0.4,5.1-1.1c2-0.7,3.1-1.2,3.2-1.6l4-19l18.7-0.1l-4.3,20.6c-5.7,2.2-9.2,3.6-10.7,4.2l2.7,11.7
			c1-0.5,1.7-1.3,1.9-2.3c5.2-4.8,10.1-9.8,14.6-14.8c1.5,6.1,4,10.2,7.4,12.2c3.4,2,9.2,3,17.3,3l26.2,0c1.5-5,4.2-8,8.2-9l0.2-1.1
			c-7,0.2-17.9,0.4-32.8,0.3C330.8,92.6,325.1,92.2,321.7,91.4z M283,53.4l-2.5,11.8l-19.3,0.1l2.5-11.9L283,53.4z M279.9,68.2
			l-2.6,12.5l-19.3,0l2.6-12.5l0.5,0l0,0.1l16.1-0.1L279.9,68.2z"/>
	</g>
	<path class="st3" d="M261.2,65l-0.7,3.4l47.6-0.5l8.9,1.5c2.1-0.3,3.6-1,4.7-2l-8.2-8.7l-5.8,6.3L261.2,65z"/>
	<g>
		<path class="st3" d="M116.9,29.1l4.9-0.8c1.3,0,2.1-0.5,2.5-1.4c-1.7-2.1-4-4.7-6.8-7.6l-5.6,5.8l-7.1,0l-51.4-0.8L11,24.5v3.2
			l41.6,0l42.9,0.9L116.9,29.1z"/>
	</g>
	<g>
		<path class="st5" d="M123.2,50.8"/>
	</g>
	<g>
		<path class="st3" d="M272.9,21.7c3.2-1.9,7.3-1.6,10.2,0.8c0.4,0.3,1,0.3,1.3-0.1c0.3-0.4,0.3-1-0.1-1.3c-3.5-2.9-8.4-3.2-12.3-1
			c-5.1,3-6.8,9.6-3.8,14.8c1.5,2.5,3.8,4.2,6.6,5c0.9,0.2,1.8,0.3,2.7,0.3c1.9,0,3.8-0.5,5.4-1.5c3.9-2.3,5.9-6.8,5.1-11.2
			c-0.1-0.5-0.6-0.8-1-0.7c-0.5,0.1-0.8,0.6-0.7,1c0.7,3.7-1,7.4-4.3,9.3c-2.1,1.2-4.5,1.6-6.8,1c-2.3-0.6-4.3-2.1-5.5-4.1
			C267.2,29.7,268.7,24.2,272.9,21.7z"/>
		<path class="st6" d="M312.9,15.1l-4.4-2.8l3.2-1.9c0.4-0.3,0.6-0.8,0.3-1.2c-0.3-0.4-0.8-0.6-1.2-0.3l-3.1,1.8l-0.3-5
			c0-0.3-0.2-0.6-0.5-0.7c-0.3-0.1-0.6-0.1-0.9,0l-7.9,4.6c-0.3,0.2-0.5,0.5-0.4,0.8l0.3,5.8c0,0.1,0,0.1,0,0.2l-16.6,9.8
			c-0.8-1-2.1-1.6-3.5-1.6c-0.8,0-1.5,0.2-2.2,0.5c-0.2,0.1-0.5,0.2-0.7,0.3c-2.3,1.3-3,4.2-1.7,6.5c0.9,1.5,2.5,2.3,4.1,2.3
			c0.5,0,1-0.1,1.4-0.2c2.1-0.5,3.6-2.3,3.7-4.5c0-0.6-0.1-1.2-0.3-1.7l16.6-9.8c0.1,0.1,0.1,0.1,0.2,0.2l4.9,3.1
			c0.3,0.2,0.6,0.2,0.9,0l7.9-4.6c0.3-0.2,0.4-0.4,0.4-0.8C313.3,15.5,313.1,15.2,312.9,15.1z M299.5,10.9l6.1-3.6l0.2,4.3
			c0,0.1,0,0.1,0,0.2l-6.1,3.6L299.5,10.9z M304.5,19.4l-3.9-2.5l6.2-3.6c0.1,0.1,0.1,0.1,0.2,0.2l3.7,2.3L304.5,19.4z"/>
		<path class="st3" d="M292.4,23.4c-1.3,0.3-2.2,1.7-1.9,3c1.3,5.7-1.2,11.6-6.3,14.6c-3.1,1.8-6.7,2.3-10.2,1.4
			c-3.5-0.9-6.4-3.1-8.2-6.2c-1.8-3.1-2.3-6.7-1.4-10.2c0.9-3.5,3.1-6.4,6.2-8.2c5.1-3,11.4-2.3,15.8,1.6c1,0.9,2.6,0.9,3.5-0.2
			c0.9-1,0.9-2.6-0.2-3.5c-6-5.4-14.7-6.3-21.7-2.2c-4.2,2.5-7.2,6.5-8.5,11.2c-1.2,4.8-0.5,9.7,2,13.9s6.5,7.2,11.2,8.5
			c1.5,0.4,3.1,0.6,4.6,0.6c3.2,0,6.4-0.9,9.3-2.6c7-4.1,10.4-12.2,8.6-20.1C295.1,23.9,293.7,23,292.4,23.4z"/>
	</g>
	<path class="st6" d="M184.5,16.2c0,0-1.7,0.5-1.8,1c-0.1,0.5-2.6,12.2-2.6,12.2s-0.3,0.2,0.6,0.2c0.9,0,6.3-0.2,6.8,4.7
		c-0.7,5.8-0.9,5.7-0.9,5.7L175.2,95h20l19-90.6h-10.4C203.9,4.4,195.2,12.7,184.5,16.2z"/>
</g>
</svg>
